<?xml version="1.0" encoding="utf-8"?>
<!-- Generator: Adobe Illustrator 24.3.0, SVG Export Plug-In . SVG Version: 6.00 Build 0)  -->
<svg version="1.1" id="Layer_1" xmlns="http://www.w3.org/2000/svg" xmlns:xlink="http://www.w3.org/1999/xlink" x="0px" y="0px"
	 viewBox="0 0 365.1 388.6" style="enable-background:new 0 0 365.1 388.6;" xml:space="preserve">
<style type="text/css">
	.st0{fill:#163234;}
	.st1{fill:#182F32;}
	.st2{fill:#24282C;}
	.st3{fill:#348679;}
	.st4{fill:#1A2F39;}
	.st5{fill:#348678;}
	.st6{fill:#2D8075;}
	.st7{fill:#60BAA9;}
	.st8{fill:#16373B;}
	.st9{fill:#B1CFBB;}
	.st10{fill:#153133;}
	.st11{fill:#E7D7B9;}
	.st12{fill:#EEE2CC;}
	.st13{fill:#DE5B4F;}
	.st14{fill:#E0594D;}
	.st15{fill:#E4554A;}
</style>
<path class="st0" d="M326.1,269.1c-0.1,0.2-0.2,0.4-0.4,0.5c-0.7-0.6-1.3-1.2-2.3-1c-1.2,0.1-1.8-0.5-1.7-1.7c0-0.5,0.2-1.3-0.5-1.4
	c-0.7-0.1-0.7,0.7-1,1.2c-1.3,2.1-2.8,4.1-5.4,4.8c1.6-3,3.3-6.1,4.9-9.2c0.3-0.5,1.1-1.3,0-1.8c-0.8-0.3-1.6-0.3-2,0.7
	c-0.1,0.2-0.2,0.4-0.3,0.6c-10.3,19.2-24.5,34.9-41.5,48.2c-7.1,5.6-14.8,10.4-23,14.3c-1.3,0.6-2.1,1.4-1.4,2.7
	c0.8,1.5,1.6,0,2.3-0.3c5.2-2.4,10.1-5.4,15-8.3c0.8,2.9,3.5,4.6,4.5,7.4c-6,4.4-12.5,7.8-19.4,10.6c-1.7,0.7-2,1.4-2.1,3.1
	c-0.1,4.4,0.6,8.9-0.4,13.3c-1.4,6.3-5.3,9.7-11.7,10.8c-4.3-0.9-8.7-0.2-13-0.4c-0.3,0-0.7,0.3-1,0.5c-1.5,1-2.6,2.4-3.6,3.9
	c-18.9,27.1-57.8,28-78,1.8c-1.7-2.2-3.1-4.6-5.8-5.7c-4.5-1-9.1-0.7-13.6-0.2c-6.2-0.7-10.6-4.7-12-11.1c0.8-4.9,0.3-9.9,0.3-14.8
	c0-0.4-0.5-0.6-0.9-0.7c-12.3-4.9-23.2-12.1-33.3-20.5c-13.7-11.3-25.3-24.4-34.7-39.5c-2-3.1-4.8-5.4-7.1-8.1
	c-0.5-1.2-1.5-0.8-2.3-0.8c-4.5,0-9,0-13.6,0c-1.2,0-2.4-0.4-3.5,0.4c-4.9-1-8.8-3.4-11.7-7.5c-0.1-2.3-1-4.5-2.2-6.2
	c-1.4-1.9-1.5-4.1-1.9-6.1c-0.3-1.8-0.9-3.9,0-5.6c1.2-2.4,2-4.8,2.3-7.5c0.3-2.2,1.2-4.2,3-5.6c1.8-1.4,2.1-3.2,1.4-5.1
	c-0.6-1.8-1-3.5-1.1-5.4c0-0.7,0-1.5-0.8-1.9c0.1-0.5,0.2-0.9,0.3-1.4c1.7-3.3,3-6.9,2.8-10.5c-0.4-5.8-1.1-11.6-3-17.3
	c-1.1-3.3-0.8-7-2.6-10.2c-0.2-0.3-0.1-0.8,0-1.2c0.1-1.7-0.5-3.1-1-4.7c-1.1-3.5-2.2-7-1.1-10.7c0.2-0.5-0.7-1.5,0.4-1.5
	c1,0,0.7,1.1,0.7,1.8c0.2,2.4,0.9,4.5,3.1,5.7c1.5,5.4,3.1,10.9,4.5,16.3c3,12.1,4.2,24.2,1.7,36.6c-1.5,7.5-3.4,14.9-5.2,22.4
	c-1.1,4.5-0.1,6.7,3.6,8.2c0.4,0.5,0.9,0.5,1.4,0.1c0.4,0,0.7,0,1.1,0c0.9,0.6,1.9,0.3,2.8,0.3c19.2,0,38.5,0,57.7,0
	c0.2,1.6,2.6,1.1,2.8,2.7c0.1,1.6,1.1,1.6,2.4,1.6c5.9,0,11.7,0,17.6,0c61.8,0,123.7,0,185.5,0c2.6,0,4.6-1.7,5.2-4.4
	c16.3,0,32.7,0,49,0c0.6,1.6,2,1.4,3.2,1.4c3.4,0.1,6.9,0.1,10.3,0c1.4,0,2.7,0.7,4.3,0.3c4.4-0.9,6.9-3.7,8.4-7.8
	c0.9,3.4-1,6.8,0,10.1c0.1,0.1,0,0.2-0.1,0.3c-1.2,0.2-0.9,1.2-0.9,2l0,0c-0.5,0.1-1.3,0-1.5,0.3c-0.5,0.6,0.5,0.8,0.6,1.3
	c-2.9,4.9-7.2,7.8-12.7,9c-0.3-0.1-0.6-0.3-0.9-0.3c-6.5,0-13,0-19.5,0C326.8,268.2,326.3,268.3,326.1,269.1z M124.8,299.7
	c0.1,0.1,0.1,0.1,0.2,0.2c-4.1,1.2-6,3.8-6,8c0,4,0.1,8.1,0.1,12.1c-0.3,10.1-0.2,20.2,0,30.3c0,3.7,3.3,6.6,7,6.7
	c3.6,0.1,7.1,0.1,10.7,0c2.8-0.1,4.9,0.8,6.6,3.2c2.1,2.9,4.8,4.6,8.6,4.6c20,0,39.9,0,59.9,0c4,0,7.4-1.4,9.8-4.8
	c1.5-2.2,3.5-3.2,6.2-3c2.3,0.2,4.7,0,7,0.1c2,0,4.1,0.1,5.9-1.1c2.1-1.3,3.5-3,3.5-5.7c0.1-13.6,0.3-27.1,0.3-40.7
	c0-1.9,0-3.9-1.3-5.5c-1-2.4-3-3.6-5.4-4.2c-0.2-0.2-0.3-0.4-0.5-0.6c-0.9-2.5-3.5-4.4-6-4.4c-14.8,0-29.5,0-44.3,0
	c-14.4,0-28.7,0-43.1,0c-0.9,0-2-0.5-2.6,0.7c-0.8,1.6-2.2,1.8-3.7,1.7c-3.7-0.4-7.1,0.7-10.4,2c-0.8,0-1.6,0-2.4,0
	c-0.2-0.3-0.5-0.4-0.8-0.2c-0.1,0.1-0.3,0.3-0.2,0.4C124,299.8,124.4,299.6,124.8,299.7z M289.3,272.5c-7.3,9.4-15.5,17.9-25.2,24.8
	c-3.9,2.7-8,5.1-11.9,7.7c-0.8,0.5-2.1,1-0.8,2.3c0,0.5-0.1,1,0,1.4c0.2,1.2-0.6,3,0.5,3.6c1,0.5,2.3-0.8,3.4-1.5
	c17-10,31.4-23,42.7-39.2c0.6-0.9,1.5-1.6,1.6-3.1c-1.3,0-2.5-0.1-3.6,0c-1.4,0.2-3-0.7-4.3,0.7
	C290.9,270.4,290.1,271.5,289.3,272.5z M103,300.7c-0.9-0.8-1.8-1.7-2.8-2.4c-11.1-8.1-21.2-17.1-29-28.5c-0.4-0.5-0.8-1-1.5-1
	c-2.1,0-4.2,0-6.3,0c-1,0-1,0.5-0.6,1.2c0.3,0.5,0.6,0.9,0.9,1.4c8.1,11.7,17.9,21.8,29.4,30.3c5.5,4.1,11.3,7.7,17.4,10.9
	c1.5,0.8,2.1,0.4,2.1-1.1c0.1-1.5,0.1-2.9,0.1-4.4c0.3-0.5,0.4-1.1-0.3-1.4C109.3,303.9,106.2,302.3,103,300.7z M78.2,256.9
	c9.6,13.8,21.2,25.1,35.8,33.3c5.4,3,10.9,4.3,17.1,4.2c34-0.2,68.1-0.2,102.1,0c5.5,0,10.3-1.3,14.9-4.1c0.8-0.5,1.7-1,2.5-1.5
	c12.9-7.8,23.5-18.1,32.2-30.3c0.4-0.5,1.1-1,0.8-1.7c-0.3-0.7-1.1-0.3-1.7-0.4c-0.3,0-0.6,0-1,0c-66.6,0-133.2,0-199.8,0
	C80.3,256.5,79.4,256.3,78.2,256.9z M112.4,328c0.6-1.6,0.1-2.5-1.4-3.1c-13.8-6.3-25.7-15.4-36.6-25.9
	c-11.3-10.9-20.6-23.3-28.2-37c-0.8-1.5-1.7-1.8-3.2-1.1C58,290,86.4,317.1,112.4,328z M270.4,323.7c0.1-0.1,0.1-0.2,0.2-0.4
	c0,0-0.1-0.1-0.2-0.1c-0.1,0.1-0.2,0.2-0.3,0.2C270.2,323.6,270.3,323.6,270.4,323.7z"/>
<path class="st1" d="M362.6,255.8c-1-3.3,1-6.7,0-10.1c-1.5,4.1-4.1,6.8-8.4,7.8c-1.5,0.3-2.8-0.4-4.3-0.3c-3.4,0.1-6.9,0.1-10.3,0
	c-1.2,0-2.6,0.1-3.2-1.4c5,0,10,0,14.9,0c0.9,0,1.8,0.2,2.5-0.5c3.1-1.1,4.4-3.4,3.7-6.8c-1.1-5.8-2.3-11.7-3.5-17.5
	c-3-14.2-3.1-28.3,0.3-42.4c1.3-5.6,2.8-11.2,4.1-16.9c1.2-5.2-1.1-8.5-6.1-9.1c-0.8-0.7-1.9-0.4-2.8-0.4c-16.7,0-33.4,0-50.1,0
	c0.1-1.3-1.4-2.5-0.5-3.9c1.3-0.2,2.6,0.4,3.8-0.4c3.2,0,6.5-0.1,9.7-0.1c3.1,0.8,6.1,3.2,9.5,0.7c0.5-0.4,1.4-0.2,2.1-0.2
	c0.2,0,0.3,0.1,0.5,0.1c0.5,0.1,0.9,0.3,1.4,0.4c3,0.1,6-0.3,8.8,1.6c1.6,1.1,4-1,4.4-3c0.5-2.4,0.5-5,1.8-7.3
	c0.2,2.4,0.4,4.8,0.6,7.2c0.1,1,0.4,1.5,1.4,1.5c1.2,0,1.5-0.7,1.4-1.8c-0.7-8.3-2-16.4-4.1-24.5c-5.1-19.7-13.6-37.8-25.5-54.4
	c-2.6-3.6-5.6-7-8.7-10.1c0.3-0.6-0.2-1-0.5-1.4c-1.8-2.2-3.7-4.3-5.8-6.2c-7.3-7.8-15.5-14.6-24.3-20.6
	c-15-10.2-30.9-18.4-48.6-23.1c-7-1.9-14-3.6-21.1-4.7c-5.6-0.9-11.2-1.2-16.8-1.7c-0.2-0.7-0.7-0.8-1.3-0.8c-3.8,0-7.7,0-11.5,0
	c-0.6,0-1.1,0.2-1.3,0.8c-4.8,0.4-9.7,0.6-14.5,1.3c-14.6,2-28.6,6-42.1,11.7C85,33.3,59.9,56.5,41.4,87.2
	c-12,19.8-18.7,41.4-20.4,64.6c-0.8-0.2-0.9-0.8-0.9-1.5c0-1.5-0.5-3-0.2-4.5c0.1-0.5-0.3-1.3-1-1.5c-0.4-0.2-1,0.2-1,0.4
	c0.8,2-1.4,3.2-1.1,5.3c0.4,3.4-0.4,5.8-4,5.7c-0.9,0-1.7,0.4-2.4,1c-0.6,0.6,0,0.8,0.4,0.9c0,0.2,0,0.3,0,0.5c0,0.2,0,0.4,0,0.6
	c-4.3,1.3-6,4-4.8,7.5c0,0.5,0.1,1,0.1,1.5c-2.2-1.3-3-3.3-3.1-5.7c0-0.7,0.3-1.7-0.7-1.8c-1.1,0-0.3,1-0.4,1.5
	c-1.1,3.7,0,7.2,1.1,10.7c0.5,1.5,1.1,3,1,4.7c0,0.4-0.1,0.9,0,1.2c1.8,3.2,1.5,6.9,2.6,10.2c1.9,5.6,2.6,11.5,3,17.3
	c0.2,3.6-1,7.2-2.8,10.5c0.2-3.8,0.6-7.6,0.6-11.4c0-10.3-2.8-20-5.7-29.8c-1-3.5-1.8-7-1.8-10.7c-0.1-5.9,6-12.1,11.8-11.2
	c2.5,0.3,3.1-0.6,3.2-2.9c1-13.6,3.8-26.8,8.5-39.5c10.1-27.6,26.9-50.7,48.9-70c23.4-20.5,50.6-33,81-38.2
	c41.9-7.1,81.2,0.8,117.6,22.9c28.6,17.4,49.8,41.4,64.5,71.3c8.2,16.6,13.1,34.2,15.7,52.5c0,0.3,0.1,0.6,0.1,1
	c-0.2,2,0.3,2.8,2.7,2.9c6.4,0.2,11.6,6.8,11.1,13.7c-0.3,4.7-1.8,9.2-3.1,13.6c-4.9,16.8-4.5,33.6-0.3,50.4
	c1.3,5.3,3.1,10.5,2.7,16.1C364.2,250,364,253,362.6,255.8z"/>
<path class="st1" d="M273.3,325.9c-0.9-2.8-3.7-4.5-4.5-7.4c0,0,0,0,0,0c0.7,0,1.4,0,1.4-1c0,0,0,0,0,0c0.2-0.2,0.3-0.3,0.5-0.5
	c0,0,0,0,0,0c3.5,0,4.5-0.7,5.3-3.5l0,0c3.4,0.1,4.2-0.6,3.4-2.9c0.7-0.6,1.3-1.2,2-1.8c8.4-6.7,15.8-14.4,22.6-22.7
	c3.9-4.7,7.2-9.8,10.8-14.8c2.6-0.7,4.1-2.6,5.4-4.8c0.3-0.5,0.3-1.3,1-1.2c0.8,0.1,0.6,0.9,0.5,1.4c-0.1,1.2,0.5,1.8,1.7,1.7
	c1-0.1,1.7,0.5,2.3,1c-0.9,1.1-1.4,2.5-2.5,3.4c-0.8-0.6-1.7-1.9-2.4-0.2c-0.7,1.7-1.8,3.1-2.9,4.4c-1.4,1.7-0.9,2.1,1,2.1
	c-7.6,12-16.7,22.8-27.3,32.4C286,317,279.9,321.8,273.3,325.9z"/>
<path class="st1" d="M6.6,217.6c0.8,0.4,0.8,1.1,0.8,1.9c0.1,1.8,0.5,3.6,1.1,5.4c0.7,2,0.4,3.7-1.4,5.1c-1.8,1.4-2.7,3.4-3,5.6
	c-0.3,2.7-1,5.1-2.3,7.5c-0.9,1.8-0.3,3.9,0,5.6c0.3,2,0.5,4.2,1.9,6.1c1.2,1.7,2,3.9,2.2,6.2c-5.3-6.8-6.2-14.4-4.1-22.6
	C3.6,231.6,5.6,224.7,6.6,217.6z"/>
<path class="st2" d="M326.1,269.1c0.1-0.8,0.7-1,1.4-1c6.5,0,13,0,19.5,0c0.3,0,0.6,0.2,0.9,0.3c-6.5,0.8-12.9,0.2-19.4,0.5
	C327.7,269,326.9,269.1,326.1,269.1z"/>
<path class="st2" d="M17.6,268.6c1.1-0.7,2.4-0.4,3.5-0.4c4.5,0,9,0,13.6,0c0.8,0,1.8-0.4,2.3,0.8C30.6,268.8,24.1,269.3,17.6,268.6
	z"/>
<path class="st0" d="M319,279.4c-1.9,0-2.4-0.3-1-2.1c1.1-1.3,2.2-2.7,2.9-4.4c0.6-1.7,1.6-0.4,2.4,0.2
	C321.2,274.8,320.4,277.3,319,279.4z"/>
<path class="st1" d="M112.2,337c0.4,0.1,0.9,0.3,0.9,0.7c0,4.9,0.5,9.9-0.3,14.8C112.6,347.4,112.4,342.2,112.2,337z"/>
<path class="st2" d="M225.7,363.8c0.3-0.2,0.7-0.5,1-0.5c4.3,0.2,8.7-0.5,13,0.4C235.1,363.7,230.4,363.7,225.7,363.8z"/>
<path class="st2" d="M124.8,363.6c4.5-0.6,9.1-0.9,13.6,0.2C133.9,363.7,129.3,363.7,124.8,363.6z"/>
<path class="st1" d="M360.6,259.6c-0.1-0.5-1.1-0.8-0.6-1.3c0.3-0.3,1-0.2,1.5-0.3C361.5,258.7,361.1,259.2,360.6,259.6z"/>
<path class="st1" d="M361.5,258c0-0.8-0.3-1.7,0.9-2C362.4,256.8,362.1,257.4,361.5,258z"/>
<path class="st3" d="M6.2,167.7c0-0.5-0.1-1-0.1-1.5c0.7-0.6-0.1-1.8,0.8-2.4c0.4,0.6,0.7,1.1,1.1,1.6c2.5,7.5,4.3,15.1,6.1,22.8
	c2.4,10.8,3,21.7,0.8,32.6c-1.6,8-3.7,15.8-5.6,23.8c-0.4,1.7-0.3,3,1.5,3.8l0,0c0.6,0.6,1.3,0.4,2,0.4c5.3,0,10.5,0,15.8,0
	c106.9,0,213.9,0,320.8,0c1.2,0,2.4,0.3,3.5-0.4c2.3-0.2,2.5-1.9,2.2-3.5c-1.3-6.8-2.8-13.5-4.3-20.3c0-0.7,0.1-1.5-0.4-2.1
	c0-0.3,0-0.5-0.1-0.8c-0.1-2-0.4-4-0.9-6c0.1-0.1,0.1-0.2,0-0.2c-0.1-2.6-0.1-5.2-0.2-7.7c0-0.5,0-1.1,0-1.6
	c-0.1-6.7,1-13.2,2.1-19.8c0-0.1,0.1-0.3,0.1-0.4c0.9-1.9,1-4,1.5-6c1-3.8,2-7.6,2.9-11.5c1.2-5.2-0.1-7.1-5.3-7.1
	c-4.1-0.1-8.2,0.3-12.3,0.3c-12.8-0.1-25.7-0.2-38.5-0.3c-0.4,0-0.8-0.1-1.2-0.1c-2.5-1.1-5.3,0.1-8.4-1c2.6-0.7,4.6-0.3,6.6-0.5
	c0.8-0.1,1.8,0.4,2.3-0.8c1.1-0.1,2.2-0.2,3.4-0.2c16.7,0,33.4,0,50-0.1c5,0.6,7.3,3.9,6.1,9.1c-1.3,5.6-2.8,11.2-4.1,16.9
	c-3.4,14.1-3.3,28.3-0.3,42.4c1.2,5.8,2.4,11.7,3.5,17.5c0.7,3.4-0.6,5.7-3.7,6.8c-1.7,0-3.4,0-5.1,0c-101.8,0-203.7,0-305.5,0
	c-9.9,0-19.9,0.1-29.8,0.1c-0.4,0-0.7,0-1.1,0c-0.5,0-0.9-0.1-1.4-0.1c-3.7-1.5-4.7-3.8-3.6-8.2c1.8-7.4,3.6-14.8,5.2-22.4
	c2.5-12.4,1.3-24.6-1.7-36.6C9.2,178.5,7.7,173.1,6.2,167.7z"/>
<path class="st1" d="M287.3,251.7c-0.6,2.6-2.6,4.4-5.2,4.4c-61.8,0-123.7,0-185.5,0c-5.9,0-11.7,0-17.6,0c-1.2,0-2.2-0.1-2.4-1.6
	c-0.2-1.6-2.5-1.1-2.8-2.7C145,251.7,216.2,251.7,287.3,251.7z"/>
<path class="st4" d="M127.2,299.2c3.4-1.3,6.7-2.4,10.4-2c1.5,0.2,2.9,0,3.7-1.7c0.6-1.2,1.7-0.7,2.6-0.7c14.4,0,28.7,0,43.1,0
	c14.8,0,29.5,0,44.3,0c2.5,0,5,1.9,6,4.4C200.6,299.2,163.9,299.2,127.2,299.2z"/>
<path class="st5" d="M112.7,307c0,1.5,0,2.9-0.1,4.4c-0.1,1.5-0.6,1.9-2.1,1.1c-6.1-3.2-11.9-6.8-17.4-10.9
	C81.6,293,71.8,283,63.7,271.3c-0.3-0.5-0.6-0.9-0.9-1.4c-0.5-0.7-0.5-1.2,0.6-1.2c2.1,0,4.2,0,6.3,0c0.7,0,1.2,0.5,1.5,1
	c7.8,11.4,18,20.5,29,28.5c1,0.7,1.9,1.6,2.8,2.4C105.6,303.7,109,305.6,112.7,307z"/>
<path class="st3" d="M240.7,355.9c-1.8,1.2-3.8,1.1-5.9,1.1c-2.3,0-4.7,0.1-7-0.1c-2.7-0.2-4.7,0.8-6.2,3c-2.4,3.4-5.8,4.8-9.8,4.8
	c-20,0-39.9,0-59.9,0c-3.8,0-6.5-1.8-8.6-4.6c-1.7-2.4-3.8-3.3-6.6-3.2c-3.6,0.1-7.1,0.1-10.7,0c-3.8-0.1-7-3-7-6.7
	c-0.1-10.1-0.3-20.2,0-30.3c0.7-2.8,0.2-5.6,0.4-8.3c0.1-1.9,0.6-3.7,1.8-5.2c0.1,1,0.2,1.9,0.2,2.9c0,13,0,26,0,39
	c0,1.4-0.2,2.8,0.9,3.9c0.8,0.8,1.4,1.8,2.5,2.2c5,0.1,10,0.2,15,0.3c0.2,0.1,0.4,0.1,0.5,0.2c0.3,0,0.6,0.1,1,0.1
	c1.4,0.8,2.5,1.8,3.5,3.2c1.5,2.1,3.5,3.7,6.2,4c10.3,0,20.7,0.1,31,0.1c10.3,0,20.7-0.1,31-0.1c3-0.3,5.2-2,6.9-4.3
	c1.7-2.4,4-3.3,6.8-3.3c2.3,0,4.7,0,7,0c2,0,4,0.3,5.9-0.7C240.1,354.5,240.4,355.2,240.7,355.9z"/>
<path class="st6" d="M291.7,269.4c1.2-1.4,2.8-0.5,4.3-0.7c1.2-0.1,2.4,0,3.6,0c-0.1,1.4-1,2.2-1.6,3.1
	c-11.3,16.3-25.7,29.2-42.7,39.2c-1.1,0.6-2.3,2-3.4,1.5c-1.1-0.6-0.3-2.4-0.5-3.6c-0.1-0.5,0-1,0-1.4c1.4-0.9,2.9-1.7,4.3-2.6
	c13.8-8.2,25.8-18.4,34.8-31.8C291.5,272,291.7,270.7,291.7,269.4z"/>
<path class="st3" d="M314.8,271.5c-3.6,5-6.9,10.1-10.8,14.8c-6.8,8.3-14.2,16-22.6,22.7c-0.7,0.5-1.3,1.2-2,1.8
	c-1.2,0.9-2.7,1.4-3.4,2.9c0,0,0,0,0,0c-2.1,0.7-3.7,2.1-5.3,3.5c0,0,0,0,0,0c-0.2,0.2-0.3,0.3-0.5,0.5c0,0,0,0,0,0
	c-0.7,0.1-1.1,0.4-1.4,1c0,0,0,0,0,0c-4.9,2.9-9.8,6-15,8.3c-0.7,0.3-1.5,1.8-2.3,0.3c-0.7-1.3,0.1-2.1,1.4-2.7
	c8.2-3.9,15.8-8.7,23-14.3c17-13.3,31.3-29.1,41.5-48.2c0.1-0.2,0.2-0.4,0.3-0.6c0.4-1,1.3-1,2-0.7c1.1,0.5,0.3,1.3,0,1.8
	C318.1,265.4,316.5,268.5,314.8,271.5z"/>
<path class="st3" d="M112.4,328c-26-10.9-54.5-38-69.4-67.1c1.5-0.7,2.4-0.4,3.2,1.1c7.5,13.8,16.9,26.2,28.2,37
	c10.8,10.5,22.8,19.6,36.6,25.9C112.5,325.5,113,326.3,112.4,328z"/>
<path class="st7" d="M121.3,306.4c-1.2,1.5-1.7,3.2-1.8,5.2c-0.1,2.8,0.3,5.6-0.4,8.3c0-4-0.1-8.1-0.1-12.1c0-4.2,1.9-6.7,6-8
	c1.1-0.1,2.3-0.1,3.4-0.1c16.3,0,32.6,0,48.8,0c0.5,0.4,1,0.4,1.5,0c1.9,0,3.8,0,5.8,0c1.7,0.9,3.8-0.2,5.5,1.3
	c-17.2,0-34.5,0-51.7,0c0.6,0.5,1.3,0.5,1.9,0.5c31.7,0,63.3,0.1,95,0.1c0.9,0,2-0.4,2.8,0.5c-1.2,0-2.4-0.1-3.6-0.1
	c-23.2,0-46.3,0-69.5,0.1c-12.4,0-24.9,0-37.3,0C123.9,302.2,122.3,303.4,121.3,306.4z"/>
<path class="st8" d="M287.3,251.7c-71.1,0-142.3,0-213.4,0c-19.2,0-38.5,0-57.7,0c-0.9,0-1.9,0.2-2.8-0.3c9.9,0,19.9-0.1,29.8-0.1
	c101.8,0,203.7,0,305.5,0c1.7,0,3.4,0,5.1,0c-0.7,0.7-1.7,0.5-2.5,0.5c-5,0-10,0-14.9,0C320,251.7,303.6,251.7,287.3,251.7z"/>
<path class="st3" d="M237.8,302.2c-0.8-0.8-1.8-0.5-2.8-0.5c-31.7,0-63.3-0.1-95-0.1c-0.6,0-1.3,0-1.9-0.5c17.2,0,34.5,0,51.7,0
	c-1.7-1.5-3.8-0.4-5.5-1.3c11.7,0,23.3-0.1,35-0.1c6.1,0,12.2,0.1,18.3,0.1c2.4,0.6,4.4,1.8,5.4,4.2c-0.9,1-1,2.3-1,3.6
	c0,12.4,0,24.8,0,37.3c0,0.9,0.3,1.9-0.4,2.8c0-12.7-0.1-25.4,0-38c0-2.8-0.2-5.1-2.9-6.6c-0.4-0.1-0.7-0.3-1.1-0.4c0,0,0,0,0,0
	C237.8,302.5,237.8,302.3,237.8,302.2z"/>
<path class="st6" d="M241.8,347.7c0.7-0.9,0.4-1.9,0.4-2.8c0-12.4,0-24.8,0-37.3c0-1.3,0.1-2.6,1-3.6c1.3,1.6,1.3,3.6,1.3,5.5
	c-0.1,13.6-0.2,27.1-0.3,40.7c0,2.7-1.4,4.4-3.5,5.7c-0.3-0.7-0.7-1.4-1-2C241.8,352.3,241.8,350,241.8,347.7z"/>
<path class="st9" d="M290.5,273c-9,13.4-21,23.6-34.8,31.8c-1.4,0.9-2.9,1.7-4.3,2.6c-1.3-1.3,0-1.8,0.8-2.3c4-2.6,8.1-5,11.9-7.7
	c9.8-6.9,17.9-15.4,25.2-24.8C289.7,272.7,290.1,272.8,290.5,273z"/>
<path class="st10" d="M237.8,299.8c-6.1-0.1-12.2-0.2-18.3-0.1c-11.7,0-23.3,0.1-35,0.1c-1.9,0-3.8,0-5.8,0c-0.5,0-1,0-1.5,0
	c-16.3,0-32.6,0-48.8,0c-1.1,0-2.3,0.1-3.4,0.1c0-0.1-0.1-0.1-0.2-0.2c0-0.2,0-0.3,0-0.5c0.8,0,1.6,0,2.4,0c36.7,0,73.4,0,110.1,0
	C237.5,299.4,237.6,299.6,237.8,299.8z"/>
<path class="st9" d="M112.7,307c-3.7-1.4-7.1-3.3-9.7-6.3c3.2,1.6,6.3,3.2,9.4,4.9C113.1,305.9,113,306.4,112.7,307z"/>
<path class="st7" d="M290.5,273c-0.4-0.2-0.7-0.3-1.1-0.5c0.8-1,1.5-2.1,2.3-3.1C291.7,270.7,291.5,272,290.5,273z"/>
<path class="st4" d="M124.8,299.2c0,0.2,0,0.3,0,0.5c-0.4,0-0.8,0.2-1-0.3c0-0.1,0.1-0.3,0.2-0.4
	C124.3,298.8,124.6,298.9,124.8,299.2z"/>
<path class="st1" d="M270.4,323.7c-0.1-0.1-0.2-0.2-0.3-0.2c0.1-0.1,0.2-0.2,0.3-0.2c0,0,0.2,0.1,0.2,0.1
	C270.5,323.5,270.5,323.6,270.4,323.7z"/>
<path class="st8" d="M10.8,251.2c0.5,0,0.9,0.1,1.4,0.1C11.7,251.7,11.3,251.7,10.8,251.2z"/>
<path class="st5" d="M312.5,153.6c-3.2,0-6.5,0.1-9.7,0.1c-13.4,0-26.8,0-40.2,0c-5.7,0-11.4,0-17.1,0c-1.5,0-3.1-0.1-4.6-0.1
	c-12.7,0-25.4-0.1-38-0.1c0-0.5,0-1-0.5-1.4c-0.5-1.8,0-2.6,2.1-2.7c1.9-0.1,3.9-0.2,5.8-0.2c2,0,3.3-0.7,3.3-2.8
	c0-2.2-1.4-2.6-3.3-2.6c-5.2,0.1-10.3,0.1-15.5,0.1c-4.1,0-6.8-2.5-7.3-6.5c-0.4-4,1.3-6.1,5.3-6.1c3.6,0,7.3,0,10.9,0
	c1.5,0,3.1,0.4,4.5-0.4c0.3,0,0.6-0.1,1-0.1c0.2-0.1,0.3-0.3,0.5-0.4l0,0c1-0.2,1.8-0.6,2.4-1.5c2.1-1.7,2.5-4.3,2.9-6.7
	c3-17.9,6.2-35.7,9.5-53.5c0.6-3.2,2.3-6.3,1.1-9.7c-1.3-3.8-4-5.6-7.9-5.1c-1,0.1-2.1,0.1-3.1,0.1c-15.7,0-31.4,0.1-47.2,0.1
	c-7.6,0-15.2,0-22.7,0.1c-4,1.7-5.3,4.7-4.1,9.5c0.7,2.7,1.2,5.3,1.7,8c1.1,6.1,2.2,12.2,3.3,18.3c0.2,3.4,1,6.8,1.5,10.2
	c0.7,4.1,1.1,8.2,2.3,12.2c0.5,3.9,0.9,7.8,2.1,11.6c0.1,0.3,0.3,0.6,0.4,1c0.1,1.2,0.8,2,1.5,2.9c0.2,0.2,0.3,0.3,0.5,0.5l0,0
	c0.2,0.2,0.3,0.3,0.5,0.5c1.4,1.4,3,2,4.9,2.3c4.5,0,9,0.1,13.6,0.1c1.2,0,2.3,0,3.1,1.1c1.7,2.3,2,4.9,0.8,7.5
	c-1.1,2.6-2.9,4.1-6,4c-5.6-0.1-11.2,0-16.7,0c-1.8,0-3,0.8-3,2.7c0,1.9,1.1,2.7,3,2.6c2.7-0.1,5.5,0,8.2,0c2.5,0,2.7,0.6,1.9,2.9
	c-0.6,1.7-1.8,1.4-2.9,1.4c-35.2,0-70.3,0-105.5,0.1c-2.1,0-2.5-0.8-2.2-2.5c1.7-13,5.1-25.6,11-37.4c9.7-19.7,23.7-35.8,41.7-48.3
	c24.7-17.1,52-26,82.4-24.5c11.4,0.6,22.4,2.7,33.2,6.2c25.7,8.3,47.3,22.9,64.5,43.7c10.3,12.4,17.5,26.5,22.1,41.9
	c1.5,5.3,2.6,10.6,3.7,16c0,0.5,0.1,1,0.1,1.4C312.2,151.4,312.4,152.5,312.5,153.6z M105,96.4L105,96.4c1.2,2.7,3.4,4.4,5.9,5.9
	c0.1,2.2-1.5,4.3-0.7,6.6c-0.1,1.9,1.1,1.6,1.9,0.8c2.9-2.4,5.6-2.5,8.7-0.2c2.2,1.6,3,1.1,2.4-1.6c-1-4.2,0.7-6.9,3.8-9.3
	c0.3-0.2,0.6-0.6,0.8-0.9c0.4-0.7,1.3-1.4,0.4-2.3c-1.7-1.1-3.6-1-5.3-0.7c-2.7,0.4-3.7-0.8-4.4-3.1c-0.6-1.9-1.1-3.9-2.2-5.7
	c-1,0.9-1.4,2.1-1.7,3.2c-1,4.1-3.3,6.3-7.8,5.5c-0.7-0.1-1.4,0.1-2.2,0.2c-0.8,0.1-0.3,0.5-0.2,0.8C104.6,96,104.8,96.2,105,96.4z
	 M85.1,127.5L85.1,127.5c0.2,2.3,2.3,3.1,3.5,4.6c0.9,1,1.6,2,1.3,3.4c-0.2,1.5-0.3,3.1-0.5,4.6c0,1.2,0.5,1.7,1.6,1.2
	c0.7-0.3,1.5-0.7,2-1.3c1.8-1.8,3.5-1.6,5.3-0.1c0.4,0.3,0.8,0.6,1.2,0.8c2.3,1.4,3.1,1.1,2.9-1.6c-0.3-3.7,0.8-6.5,3.7-8.8
	c1.1-0.8,2-1.9,1.7-3.5c0-0.8-0.6-0.8-1.2-0.8c-1.7,0-3.4-0.2-5.1,0c-1.6,0.1-2.3-0.4-2.8-1.9c-0.7-2.2-1.3-4.5-2.7-6.9
	c-0.6,1.4-1,2.3-1.4,3.3c-2.2,5.4-2.2,5.3-7.9,5.5c-0.9,0-2.2-0.7-2.7,0.8C84.3,127.2,84.5,127.6,85.1,127.5z M262.1,134.8
	c0.3,1.6-0.9,3.2,0,4.8c0.1,2.8,1.8,1.3,2.5,0.6c2.4-2.3,4.7-2.1,6.9,0.1c0.1,0.1,0.1,0.1,0.2,0.1c0.9,0.3,1.7,1.4,2.6,0.7
	c0.8-0.5,0.5-1.7,0.3-2.5c-1.1-3.5,0.3-6,3-8.1c0.7-0.5,1.3-1.3,1.7-2c0.4-0.6,1.1-1.3,0.2-2.1c-1.7-1.2-3.6-0.7-5.3-0.5
	c-2.7,0.3-3.9-0.6-4.5-3.2c-0.4-1.8-1-3.7-2.1-5.5c-1.1,1.4-1.5,2.9-2.2,4.4c-2.4,5.4-0.9,4.7-7.6,4.7c-0.5,0-1.1-0.3-1.6-0.4
	c-0.6-0.1-0.9,0.1-0.9,0.7c0.4,1.1,1.1,1.9,1.9,2.7C258.9,131.3,260.5,133.1,262.1,134.8z M241.8,109c0.4,2.3,1.8,1.2,2.6,0.5
	c2.4-1.9,4.7-2.5,7.3-0.3c0.9,0.7,2.2,1.7,3.2,1.1c1-0.6,0.6-2.2,0.3-3.2c-1-3.4,0.5-5.6,2.9-7.7c1.1-1,2.4-2,2-3.9
	c-1.9-1.2-4.1-0.8-6.1-0.6c-1.9,0.2-2.6-0.5-3.2-2.2c-0.8-2.3-1.3-4.7-3-6.9c-1,2.4-2,4.4-2.7,6.5c-0.7,1.8-1.7,2.6-3.8,2.5
	c-1.9-0.1-4-0.3-5.8,0.7c1.3,2.5,3.6,4,5.6,5.8c0.9,0.8,1.3,1.5,1.1,2.7C242.4,105.7,241.5,107.3,241.8,109z M241.6,134.4
	c-2-2.7-2-5.4,0.2-8.3c-2.8,0.7-4.9,2.1-7.3,0.6c-0.5-0.3-1.2-0.9-1.7-0.2c-0.5,0.6,0,1.3,0.4,1.7c1.6,1.6,1.3,3.3,0.2,5
	c-0.2,0.3-0.4,0.7,0.1,1C237.6,132.9,237.6,132.9,241.6,134.4z M132.6,126.4c-3,0.7-5.5,1.6-8-0.1c-0.3-0.2-0.9-0.3-1,0.2
	c-0.1,0.4,0.1,1,0.4,1.3c1.7,1.6,1.3,3.3,0.4,5c-0.2,0.4-0.5,0.9,0,1.6c2.6-2.4,5.3-1.9,8.1,0.2
	C131.3,131.7,129.9,129.1,132.6,126.4z"/>
<path class="st10" d="M312.5,153.6c-0.1-1.1-0.3-2.3-0.4-3.4c0.5-0.5,0.5-1-0.1-1.4c-1.1-5.4-2.2-10.7-3.7-16
	c-4.5-15.5-11.8-29.6-22.1-41.9c-17.2-20.8-38.8-35.3-64.5-43.7C211,43.7,200,41.6,188.6,41c-30.4-1.5-57.7,7.3-82.4,24.5
	c-18,12.5-31.9,28.6-41.7,48.3c-5.8,11.8-9.2,24.4-11,37.4c-0.2,1.8,0.1,2.6,2.2,2.5c35.2-0.1,70.3-0.1,105.5-0.1
	c1.2,0,2.4,0.3,2.9-1.4c0.8-2.3,0.5-2.9-1.9-2.9c-2.7,0-5.5-0.1-8.2,0c-1.9,0-3-0.7-3-2.6c0-1.9,1.2-2.7,3-2.7
	c5.6,0,11.2-0.1,16.7,0c3.1,0.1,4.8-1.5,6-4c1.2-2.6,0.9-5.2-0.8-7.5c-0.8-1-1.9-1.1-3.1-1.1c-4.5,0-9-0.1-13.6-0.1
	c1.1-0.9,2.3-1.3,3.7-1.4c1-0.1,2.5,0.1,3-1.3c3.4-0.3,6.8,0.5,10.2-0.4c2,0.6,3.9,1.4,4.4,3.8c-0.4,0.2-0.6,0.6-0.5,1
	c0.9,4.1,0.7,8-1.6,11.6c-0.4,0.7-0.1,1,0.7,1c2.7,0,5.4,0,8.6,0c-4.1-4.7-4.1-9.6-2.3-14.7c0.2-0.7,0.2-1.3,0.1-1.9
	c0.5-0.4,1.1-0.7,1.8-0.8c0.8,0.6,1.7,0.4,2.5,0.4c4.2,0,8.3,0,12.5,0c1,1.4,1.9,1.4,2.9,0c0.5,0,1,0,1.4,0c0.1,1.1,1.6,1.3,1.5,2.5
	c-1.4,0.8-3,0.4-4.5,0.4c-3.6,0.1-7.3,0-10.9,0c-4,0-5.7,2.1-5.3,6.1c0.4,4,3.2,6.5,7.3,6.5c5.2,0,10.3,0,15.5-0.1
	c1.8,0,3.3,0.4,3.3,2.6c0,2.2-1.3,2.9-3.3,2.8c-1.9,0-3.9,0.1-5.8,0.2c-2.1,0.1-2.6,0.8-2.1,2.7c-0.4,0.1-1,0.3-0.7,0.7
	c1.4,2-0.2,2.2-1.5,2.5c-2.2,0.6-4.5,1.3-7,2c1.1,0.9,2,0.6,2.9,0.6c8.8,0,17.6,0,26.4,0c0.9,0,2-0.3,2.7,0.6c-13.5,0-27.1,0-40.6,0
	c-9.4,0-18.9,0-28.3,0c3-1.2,6.2-0.2,9.3-0.6c0.8-0.1,1.9,0.4,2.8-0.8c-2.3-0.2-4.1-2.1-6.2-1.5c-2.6,0.7-5.2,1.1-7.8,1.3
	c-1,0.1-1.4,0.5-1.4,1.5c-1,0-1.9,0-2.9,0c0.1-1.5-1-2-2.2-2c-6.7,0.1-13.3-0.2-20-1c-3.8-0.4-7.7,0.1-11.6-0.4
	c-2-0.3-4.3-0.4-6.2-0.1c-3.3,0.5-6.5,0.4-9.8,0.1c-3.8-0.3-7.7-0.9-11.5-0.5c-2.8,0.3-5.6-0.1-8.3,0c-1.7,0-3.3,0.6-5,0.3
	c-3.8-0.7-7.5-0.6-11.3,0.1c-0.3-0.5-0.7-0.9-1.3-0.9c-5.2,0-10.5-0.7-15.2,2.4c-0.5,0-1,0-1.5,0c-2.6-0.9-5.1-2.4-8.1-1.6
	c-0.1,0-0.4-0.4-0.6-0.7c0.4,0,0.8-0.2,1.2-0.1c1.9,0.3,2.8-0.4,2.8-2.4c0-1.8,0.5-3.7,0.8-5.5c1.9-14.7,6.4-28.5,13.3-41.5
	C63.8,89,75,75.3,88.5,63.6c13.7-11.9,29.1-20.9,46.2-26.9c12.9-4.6,26.2-7.1,40-7.8c10.9-0.6,21.6,0.3,32.3,1.9
	c12.7,2,24.9,6.1,36.6,11.5c11,5.1,21.3,11.5,30.7,19.2c6.4,5.2,12.2,11,17.9,17c0.2,0.2,0.4,0.3,0.6,0.5l0,0c0,0.4,0.2,0.7,0.5,0.9
	l0,0c0.2,0.2,0.3,0.3,0.5,0.5c1,1.3,1.9,2.8,3.3,3.9c0.2,0.3,0.4,0.6,0.6,0.9c0.9,1.2,1.8,2.3,2.8,3.5c0.3,0.4,0.5,0.8,0.8,1.2
	c13.6,19.3,21,40.8,23.1,64.2c-0.7,0.1-1.6-0.2-2.1,0.2C318.6,156.8,315.6,154.4,312.5,153.6z M170.3,157.6c2.2,0.4,4.3,0.7,6.4-0.1
	C174.6,157,172.5,157,170.3,157.6z M314.4,150.5c-0.1,0.1-0.2,0.2-0.2,0.3c0,0,0.1,0.2,0.1,0.2c0.1,0,0.2-0.1,0.4-0.2
	C314.6,150.7,314.5,150.6,314.4,150.5z"/>
<path class="st10" d="M341,145.9c-1.3,2.2-1.2,4.8-1.8,7.3c-0.4,2-2.8,4.1-4.4,3c-2.8-1.9-5.8-1.5-8.8-1.6c-0.5,0-0.9-0.2-1.4-0.4
	c1.6,0,3.2-0.2,4.8-0.1c1.7,0.1,2.1-0.7,1.9-2.2c-0.3-2.6-0.6-5.3-1-7.9c-3-17.8-9-34.6-18.7-49.9c-4.2-6.6-8.6-13.1-14.2-18.6
	c-0.2-0.4-0.5-0.6-0.9-0.5l0,0c0.1-0.4-0.1-0.6-0.5-0.5l0,0c0-0.4,0-0.6-0.5-0.5c0,0,0,0,0,0c-2.5-4-5.9-7.2-9.4-10.2
	c-14.1-13.3-30-23.8-48-31c-14.6-5.9-29.9-9.2-45.6-10.3c-12.4-0.9-24.7-0.4-36.9,1.8c-18.6,3.4-35.9,10-52,20
	c-8.2,5.1-15.9,10.7-22.9,17.3c-26.5,25-41.8,55.6-45.6,91.9c-0.5-0.2-1-1.6-1.4,0c-0.5,1.9-2,2.2-3.7,2.4c-2.5,0.3-4.2-1.8-6.5-1.9
	c1.2,0,1.9-0.3,2-1.8c0.2-2.8,0.6-5.6,1-8.4c2.9-17.5,8.2-34.2,16.9-49.7C54.2,75,68.6,58.8,86,45.1c9.3-7.3,19.4-13.3,30.1-18.3
	c19.6-9.2,40.2-13.8,61.7-14.6c7.7-0.3,15.5,0.5,23.2,1.3c16.5,1.8,32.3,6.4,47.3,13.4c21.3,9.9,39.9,23.6,55.9,41
	c11.8,12.8,20.6,27.5,27.3,43.5C336.1,122.4,339.3,134,341,145.9z"/>
<path class="st6" d="M341,145.9c-1.7-12-4.9-23.5-9.6-34.6c-6.7-16-15.4-30.6-27.3-43.5c-16-17.4-34.6-31-55.9-41
	c-15-7-30.8-11.6-47.3-13.4c-7.7-0.9-15.4-1.6-23.2-1.3c-21.5,0.8-42.1,5.5-61.7,14.6c-10.7,5-20.8,11-30.1,18.3
	C68.6,58.8,54.2,75,43.3,94.4c-8.7,15.5-14.1,32.2-16.9,49.7c-0.5,2.8-0.8,5.6-1,8.4c-0.1,1.5-0.8,1.8-2,1.8
	c-0.4-0.1-0.7-0.1-1.1-0.2c0.4-11.1,2.5-22,5.7-32.5C38,89.3,56.9,63,83.1,42.1c27.8-22.2,60-33.2,95.5-34.3
	c12.1-0.4,24.1,0.8,36,3.2c27.4,5.7,51.7,17.9,73.2,35.6c3.8,3.2,7.5,6.6,11.2,9.9c1.8,3,4.2,5.4,7.1,7.3c3.2,3.1,6.1,6.5,8.7,10.1
	c11.9,16.5,20.5,34.6,25.5,54.4c2.1,8,3.3,16.2,4.1,24.5c0.1,1.1-0.2,1.7-1.4,1.8c-1.1,0-1.4-0.5-1.4-1.5
	C341.5,150.7,341.2,148.3,341,145.9z"/>
<path class="st7" d="M150,158.6c1,0,1.9,0,2.9,0c1.1,0,2.2,0,3.4,0c9.4,0,18.9,0,28.3,0c13.5,0,27.1,0,40.6,0c1,0.4,2.1,0.2,3.1,0.2
	c17.6,0,35.1,0,52.7,0c4.2,0,8.4-0.2,12.6-0.3c1.8,0,3.5,0.1,5.3,0.1c-0.4,1.2-1.5,0.7-2.3,0.8c-2,0.2-4-0.3-6.6,0.5
	c3.2,1,5.9-0.2,8.4,1c-0.1,0-0.1,0.1-0.2,0.2c-4.2,0-8.4-0.1-12.6-0.1c-61,0-122.1,0-183.1,0c-16.7,0-33.3-0.3-50,0.2
	c-5.5,0-11.1,0-16.6-0.1c-0.9,0-1.9,0-2.8,0c-5.5,0-11.1,0-16.6,0c-1.9,0-3.7-0.4-5.6,0.3c-2.3,0.3-3.1,1.8-3.1,3.9
	c-0.3-0.5-0.7-1-1.1-1.6c-0.8,0.7-0.1,1.8-0.8,2.4c-1.2-3.6,0.5-6.2,4.8-7.5c2.2,0,4.4-0.1,6.5-0.1c17.5,0,35.1,0,52.6,0
	c9.2,0.1,18.4,0.2,27.6,0.2c13.7,0,27.5-0.1,41.2-0.1c0.7,0,1.3,0,2,0C143.9,158.8,147,158.8,150,158.6z"/>
<path class="st9" d="M299,56.5c-3.7-3.3-7.4-6.7-11.2-9.9C266.2,28.9,242,16.7,214.6,11c-11.9-2.5-23.9-3.6-36-3.2
	C143,8.9,110.9,19.9,83.1,42.1C56.9,63,38,89.3,28.1,121.5c-3.2,10.6-5.4,21.4-5.7,32.5c0,0,0.1,0.1,0.1,0.1c-0.2,0-0.3,0-0.5,0.1
	c-0.3,0.1-0.6,0.3-0.9,0.4c0-1-0.1-1.9-0.1-2.9c1.7-23.1,8.5-44.7,20.4-64.6C59.9,56.5,85,33.3,118.2,19.1
	c13.5-5.8,27.6-9.7,42.1-11.7c4.8-0.7,9.6-0.9,14.5-1.3c4.7,0,9.4,0,14.1,0c5.6,0.5,11.3,0.8,16.8,1.7c7.1,1.1,14.1,2.9,21.1,4.7
	c17.6,4.7,33.6,12.9,48.6,23.1c8.8,6,17,12.8,24.3,20.6C299.5,56.3,299.2,56.4,299,56.5z"/>
<path class="st5" d="M297.5,75.6c5.6,5.5,10,12,14.2,18.6c9.7,15.3,15.7,32.1,18.7,49.9c0.4,2.6,0.7,5.3,1,7.9
	c0.2,1.5-0.2,2.3-1.9,2.2c-1.6-0.1-3.2,0-4.8,0.1c-0.2,0-0.3-0.1-0.5-0.1c-2.2-23.4-9.6-44.9-23.1-64.2c-0.3-0.4-0.5-0.8-0.8-1.2
	c1.2,0,1.9-0.4,1.2-1.7c-0.6-1.2-1-2.5-2.1-3.4c-1.2-1-2.2-2.2-1.1-4.1c0.5-0.9-0.3-1.9-1-1.7c-2.3,0.6-3.5-1.2-5-2.2
	c-0.9-0.6-1.3-1.2-0.6-2.2c0.4-0.5,0.5-1.2,0.6-1.8c1.3,0.5,1.6,2.5,3.4,2.5c0,0,0,0,0,0c0.2,0.2,0.3,0.3,0.5,0.5c0,0,0,0,0,0
	c0.2,0.2,0.3,0.3,0.5,0.5c0,0,0,0,0,0C296.7,75.5,297.1,75.6,297.5,75.6z"/>
<path class="st8" d="M293.6,158.6c-4.2,0.1-8.4,0.3-12.6,0.3c-17.6,0-35.1,0-52.7,0c-1,0-2.1,0.2-3.1-0.2c-0.8-0.9-1.8-0.6-2.7-0.6
	c-8.8,0-17.6,0-26.4,0c-0.8,0-1.8,0.3-2.9-0.6c2.5-0.7,4.7-1.3,7-2c1.3-0.4,2.9-0.5,1.5-2.5c-0.3-0.4,0.3-0.6,0.7-0.7
	c0.4,0.4,0.5,0.9,0.5,1.4c0.7,0.8,1.6,0.5,2.5,0.5c12.6,0,25.2,0,37.8,0c0.8,0,1.6,0.2,2.3-0.4c5.7,0,11.4,0,17.1,0
	c0.8,0.7,1.9,0.4,2.8,0.4c11.2,0,22.4,0,33.5,0c-0.9,1.4,0.6,2.6,0.5,3.9C297.5,158.3,295.4,157.4,293.6,158.6z"/>
<path class="st10" d="M21,151.7c0,1,0.1,1.9,0.1,2.9c-1.5,0.5-2.7,1.5-3.5,2.9c-2.3,0-4.5,0-6.8,0c-0.5-0.1-1.1-0.3-0.4-0.9
	c0.7-0.6,1.5-1,2.4-1c3.6,0.1,4.4-2.3,4-5.7c-0.3-2.1,1.9-3.3,1.1-5.3c-0.1-0.2,0.5-0.6,1-0.4c0.7,0.3,1.1,1,1,1.5
	c-0.3,1.5,0.2,3,0.2,4.5C20,151,20.1,151.6,21,151.7z"/>
<path class="st10" d="M70,158.6c-17.5,0-35.1,0-52.6,0c-2.2,0-4.4,0-6.5,0.1c0-0.2,0-0.4,0-0.6c4.7,0,9.4,0,14,0c1.8,0,3.6,0,5.4,0
	c3.4,0,6.8,0,10.2,0c1,0,2,0,2.9,0c0.3,0,0.6,0,1,0c0.6,0,1.3,0,1.9,0c0.5,0,1,0,1.5,0c1.5,0,2.9,0,4.4,0c1,0,1.9,0,2.9,0
	c0.7,0,1.3,0,2,0c0.5,0,1,0,1.4,0c0.3,0,0.7,0,1,0c1.2,0,2.4-0.1,3.6,0C65.3,158.3,67.7,157.5,70,158.6z"/>
<path class="st10" d="M293.6,158.6c1.9-1.2,3.9-0.3,5.9-0.6c16.7,0,33.4,0,50.1,0c0.9,0,1.9-0.3,2.8,0.4c-16.7,0-33.4,0-50,0.1
	c-1.1,0-2.2,0.1-3.4,0.2C297.1,158.7,295.3,158.7,293.6,158.6z"/>
<path class="st10" d="M298.9,154.2c-11.2,0-22.4,0-33.5,0c-0.9,0-1.9,0.3-2.8-0.4c13.4,0,26.8,0,40.2,0
	C301.6,154.5,300.2,154,298.9,154.2z"/>
<path class="st7" d="M299,56.5c0.2-0.1,0.5-0.2,0.7-0.3c2.2,1.9,4,4,5.8,6.2c0.3,0.4,0.8,0.8,0.5,1.4
	C303.2,61.9,300.8,59.5,299,56.5z"/>
<path class="st2" d="M188.8,6.1c-4.7,0-9.4,0-14.1,0c0.2-0.7,0.7-0.8,1.3-0.8c3.8,0,7.7,0,11.5,0C188.2,5.3,188.7,5.5,188.8,6.1z"/>
<path class="st8" d="M24.9,158c-4.7,0-9.4,0-14,0c0-0.2,0-0.3,0-0.5c2.3,0,4.5,0,6.8,0C20,157.8,22.5,157,24.9,158z"/>
<path class="st0" d="M270.8,317.1c1.6-1.4,3.2-2.8,5.3-3.5C275.3,316.4,274.3,317.1,270.8,317.1z"/>
<path class="st0" d="M276.1,313.7c0.6-1.5,2.2-2,3.4-2.9C280.3,313.1,279.5,313.8,276.1,313.7z"/>
<path class="st0" d="M268.8,318.6c0.3-0.6,0.8-0.9,1.4-1C270.3,318.6,269.6,318.6,268.8,318.6z"/>
<path class="st0" d="M270.3,317.6c0.2-0.2,0.3-0.3,0.5-0.5C270.6,317.3,270.5,317.5,270.3,317.6z"/>
<path class="st11" d="M139.8,283.6c-0.5-4.9,0-9.8-0.1-14.7c-0.1-5.6,0-5.6,5.6-5.4c2.5,0.1,5,0.2,6,3.2c0,3.6,0.2,7.3,0.1,10.9
	c-0.1,4.4-1.8,5.9-6.1,6C143.5,283.6,141.6,283.6,139.8,283.6z M147.6,269.6c0-0.2,0-0.3,0.1-0.5c-0.3-2.4-1.3-2.8-4.5-1.9
	c-0.8,4.4-0.8,8.7,0,13.1c0.3,0.3,0.7,0.4,1,0.1c1,0.2,2,0.1,2.9-0.6c0.3,0,0.4-0.2,0.4-0.5c0-3.1,0.1-6.2,0.1-9.3
	c0,0,0.1-0.1,0.1-0.1C147.7,269.8,147.7,269.7,147.6,269.6z"/>
<path class="st11" d="M175.7,283.8c-0.3-0.4-0.6-0.7-0.9-1.1c-0.1-0.9,0.2-2.2-1-2.4c-1.7-0.1-4.2-0.9-5,0.3c-0.9,1.6-1.7,3-3.3,3.8
	c-0.7-1-0.4-2-0.1-3c1.2-5.1,2.4-10.2,3.7-15.2c0.7-2.7,1.4-3.1,4.4-1.9c0,0.5-0.3,1.1,0.4,1.4c0,0,0,0,0,0c0.1,0.9,0.1,1.8,0.3,2.6
	c1,4.4,2,8.9,3.3,13.2C177.9,283.4,177.3,283.8,175.7,283.8z M172.6,276c-0.7-0.7,0.3-2.6-0.9-2.7c-1.4-0.2-1.5,1.6-1.7,2.7
	c-0.2,0.8,0.4,1.3,1.2,1.4C172.1,277.4,172.7,277.1,172.6,276z"/>
<path class="st11" d="M193.1,283.7c-0.9-2.4-0.2-4.8-0.4-7.3c-0.1-1.8-0.1-3.6-0.1-5.5c0-1.2-0.1-2.4-0.1-3.6c-1,0.1-2,0.1-3,0.1
	c-0.7,0-1.4,0-2.2,0c-1.2-3.4-1-3.7,2.5-3.8c2.9-0.1,5.8,0.2,8.7,0c2.4-0.2,3.4,0.6,3,3c-0.1,0.1-0.1,0.3-0.2,0.4
	c-1.8,0-3.5,0.1-5.3,0.1c-0.9,5.3-0.6,10.7-0.1,16l0.2,0C195.3,284,194.1,283.3,193.1,283.7z"/>
<path class="st11" d="M223.7,280.7c0.8,0,1.6,0.2,2.4,0.1c3.2-0.5,3.2-0.5,2.9,2.7l0,0.1c-3.5,0.1-7.1,0.1-10.6,0.2
	c-0.8-0.9-0.4-2-0.4-3c0-4.7,0-9.5,0-14.2c0-3.1,0.8-3.6,3.9-2.2c-0.2,0.3-0.3,0.6-0.5,1c-0.9,4.9-0.6,9.8-0.2,14.7
	c0,0.1,0.2,0.2,0.4,0.3C222.1,281,222.9,280.8,223.7,280.7z"/>
<path class="st1" d="M139.8,283.6c1.8,0,3.7,0.1,5.5,0.1c4.3-0.1,6-1.6,6.1-6c0.1-3.6,0-7.3-0.1-10.9c1.3,1.1,1.9,2.6,2.1,4.2
	c0.6,3.5,0.7,7,0,10.5c-0.7,3-2.8,4.7-6.2,5.1C143.3,287,141.2,286.1,139.8,283.6z"/>
<path class="st4" d="M193.1,283.7c1-0.4,2.1,0.3,3-0.5c0.6-0.7,0.4-1.5,0.4-2.3c0-3.4,0.1-6.8,0-10.2c-0.1-2.2,0.4-3.4,2.9-3
	c0.7,0.1,1.5,0.2,2-0.6c0-0.2,0.1-0.3,0.2-0.4c1.4-1,1.3,0.4,1.3,0.9c0,0.9,0.6,2.7-1,2.4c-4.1-0.6-3.4,2.1-3.4,4.4
	c0,3.1,0,6.1,0,9.2c0,1.5,0.5,3.1-2.1,3C194.3,286.5,192.6,286.5,193.1,283.7z"/>
<path class="st10" d="M106.8,267.5c3.4,1,6.3,1.1,9.5-0.1c-1.9,2.9-2.3,5.7-0.2,8.8c-2.8-1.8-5.3-2-8.1,0.2
	C109.5,273.1,110,270.1,106.8,267.5z"/>
<path class="st1" d="M258.1,276.3c-2.6-2-5-2-7.3-0.1c-0.6-0.8-0.3-1.3,0-1.8c1.2-2,1.1-3.7-0.6-5.3c-0.3-0.3-0.8-0.8-0.5-1.2
	c0.3-0.6,1.1-0.4,1.5-0.2c2,1.1,4,0.6,6-0.1c0.7-0.2,2-0.3,1.2,0.7C256.2,270.9,257,273.4,258.1,276.3z"/>
<path class="st8" d="M221.3,265.3c0.2-0.3,0.3-0.6,0.5-1c1.6,0.2,1.4,1.4,1.5,2.5c0.4,4.6,0.4,9.2,0.4,13.9
	c-0.8,0.1-1.6,0.4-2.2-0.4C221.5,275.2,221.4,270.2,221.3,265.3z"/>
<path class="st8" d="M175.7,283.8c1.6-0.1,2.1-0.5,1.6-2.3c-1.3-4.3-2.2-8.8-3.3-13.2c-0.2-0.8-0.2-1.7-0.3-2.6
	c2.5,3.2,2.6,7.2,3.8,10.8c0.8,2.5,1.2,5.2,1.6,7.8c0.1,0.7,1.2,2-0.6,2.2c-1.3,0.2-2.7,0.2-2.8-1.7
	C175.7,284.5,175.7,284.2,175.7,283.8z"/>
<path class="st4" d="M229.1,283.4c1.1,0.5,1.1,1.5,0.9,2.5c-0.3,0.9-1.2,0.6-1.9,0.6c-2.6,0-5.1,0.1-7.7-0.2c-1.4-0.2-2-0.7-1.9-2.1
	c2.8,0,5.6,0,8.4,0C227.6,284.1,228.5,284.4,229.1,283.4L229.1,283.4z"/>
<path class="st1" d="M165.5,284.5c1.6-0.8,2.4-2.2,3.3-3.8c0.7-1.3,3.3-0.5,5-0.3c1.3,0.1,1,1.4,1,2.4c-3.7-1.2-4.4-0.9-5.8,2.6
	c-0.5,1.2-1.2,1.3-2.2,1.3C165.2,286.6,165.6,285.4,165.5,284.5z"/>
<path class="st4" d="M187.4,267.5c0.7,0,1.4,0.1,2.2,0c1,0,2-0.1,3-0.1c0,1.2,0.1,2.4,0.1,3.6c-0.5-0.8-1.2-1-2-0.8
	C188.5,270.5,187.6,269.5,187.4,267.5z"/>
<path class="st2" d="M229,283.5c-0.5,0.9-1.4,0.7-2.1,0.7c-2.8,0-5.6,0-8.4,0c0-0.2,0-0.3,0-0.5C221.9,283.6,225.5,283.5,229,283.5z
	"/>
<path class="st8" d="M173.8,265.8c-0.7-0.3-0.3-0.9-0.4-1.4C173.5,264.8,173.7,265.3,173.8,265.8z"/>
<path class="st4" d="M350.9,224.5c1.4,6.8,2.9,13.5,4.3,20.3c0.3,1.6,0,3.3-2.2,3.5c-1.2,0-2.4,0-3.6,0c-111.8,0-223.7,0-335.5,0
	c0.5-1.7,2.1-0.8,3.1-1.3c3.9-2,8.4-2.4,12.5-2.5c29.2-0.3,58.4-0.1,87.5-0.2c1,0,2.1,0.3,3.1-0.4c0.9,0,1.8-0.1,2.7-0.1
	c31.6,0,63.2,0,94.8,0c42.8,0,85.6,0,128.5,0c3.4,0,3.3,0,2.5-3.3c-1.9-7.1-3.6-14.2-4.6-21.5c-0.3-2.4-1.5-4.7-0.9-7.2
	c-0.4-3.5-0.1-7.1-0.1-10.6c0.9-5.9,1.4-11.8,3-17.6c2.7,1.3,2.7,1.4,0.8,3.7c-0.4,0.5-1.3,1.1-0.7,1.6c2.4,1.9-0.4,6.1,3.2,7.4
	c0.1,0-0.1,0.7-0.1,1.1c0,2.9-0.4,5.7,0.3,8.6c0,0.5,0,1.1,0,1.6c-0.5,2.6-0.8,5.2,0.2,7.7c0.1,0.1,0,0.2,0,0.2
	c-0.2,0.8,0.3,1.7-0.5,2.3c-0.8-0.4-0.1-1.6-1.1-1.8c-1.3,5-1.1,5.5,2.5,5.5c0,0.3,0,0.5,0.1,0.8
	C350.4,223.1,350.2,223.9,350.9,224.5z M346.8,214.1c-0.5-0.1-0.6,0.1-0.6,0.4c0,0.3,0.1,0.6,0.5,0.7c0.3,0,0.7-0.1,0.6-0.5
	C347.1,214.4,346.9,214.2,346.8,214.1z"/>
<path class="st1" d="M120,244c-0.9,0.7-2,0.4-3.1,0.4c-29.2,0-58.4-0.1-87.5,0.2c-4.2,0-8.6,0.5-12.5,2.5c-1,0.5-2.6-0.4-3.1,1.3
	c-0.3,0.1-0.6,0.3-1,0.4c-0.7,0-1.4,0.2-2-0.4c0.4-0.1,1,0.1,1.2-0.4c0-0.1-0.2-0.4-0.3-0.4c-0.6-0.1-0.7,0.4-0.8,0.9
	c-1.8-0.8-1.9-2.1-1.5-3.8c1.9-7.9,4-15.8,5.6-23.8c2.1-11,1.6-21.8-0.8-32.6c-1.7-7.7-3.5-15.4-6.1-22.8c0.1-2.1,0.8-3.6,3.1-3.9
	c1.9,0,3.7,0.4,5.6-0.3c5.5,0,11.1,0,16.6,0c0.9,0.5,1.9,0.5,2.8,0c5.5,0,11.1,0,16.6,0.1c0.1,1.6-0.5,2.3-2.3,2.2
	c-1.7-0.1-3.3-0.2-4.8-1.2c-0.7-0.5-1.7-0.5-2.3,0.5c-0.4,0.6-1.4,1-1,1.8c0.5,0.8,1.5,0.5,2.2,0.4c4.1-0.6,8.2-0.5,12.3,0
	c6,0.8,12.1,0.5,18.1,0.5c0.8,0,1.7-0.2,1.9,1c-0.3,0.2-0.7,0.3-1,0.5c-1.1,0-2.3,0-3.4,0c-1.5-0.7-2.9-0.7-4.4,0
	c-12.6,0-25.2,0-37.8,0c-1.3-0.7-2.6-0.7-3.9,0c-3.2,0-6.5,0-9.7,0c-0.7-0.6-1.3-0.6-1.9,0.1c-0.3,1.1,0.4,2,0.7,3
	c0.1,0.3,0.2,0.6,0.2,0.9c0.1,0.5,0.2,1.1,0.3,1.6c2.9,11.5,6.9,22.8,6.7,34.9c-0.3,5-0.8,9.9-1.9,14.8c-1.5,6.8-3.1,13.6-4.7,20.4
	c-0.3,1.2-0.2,1.7,1.1,1.4c0.8,0.1,1.6,0.1,2.4,0.1c31.3,0,62.6,0,93.9,0C115.6,243.9,117.8,243.9,120,244z"/>
<path class="st0" d="M349.2,206c-0.7-2.8-0.2-5.7-0.3-8.6c0-0.4,0.2-1.1,0.1-1.1c-3.7-1.3-0.8-5.5-3.2-7.4c-0.6-0.5,0.3-1.1,0.7-1.6
	c1.9-2.2,1.9-2.3-0.8-3.7c0.1-0.5,0.2-0.9,0.4-1.4c0.1-0.4,0.2-0.7,0.3-1.1c-0.1-1,0.3-1.9,0.6-2.8c0.1-0.4,0.2-0.7,0.3-1.1
	c-0.1-1,0.3-1.9,0.6-2.8c0.1,0,0.3,0,0.4,0c0.1,0,0.1,0.1,0.2,0.1c-0.1,0-0.1-0.1-0.2-0.1c0-0.4,0-0.7-0.1-1.1
	c-0.1-1,0.3-1.9,0.6-2.7c0.2,0.1,0.5,0.3,0.7,0.4c0.4-0.7-0.1-1.3-0.4-2c0-0.3,0-0.6-0.1-0.9c0.3-1.2-0.4-1.5-1.4-1.6
	c0-0.5,0-0.9,0-1.4c0.5-0.8,2.2-0.7,1.7-2.2c-0.5-1.5-1.8-1.1-2.9-1.1c-6.6,0-13.2,0-19.9,0c-1.5,0-3-0.1-4.4,1
	c-0.6,0.5-1.4,0.7-2-0.1c-0.8-1.1-2-0.9-3.1-0.9c-5.6,0-11.1,0-16.7,0c-0.9,0-2,0.2-2.6-0.8c0-0.1,0.1-0.1,0.2-0.2
	c0.4,0,0.8,0.1,1.2,0.1c12.8,0.1,25.7,0.2,38.5,0.3c4.1,0,8.2-0.3,12.3-0.3c5.2,0.1,6.5,2,5.3,7.1c-0.9,3.8-1.9,7.7-2.9,11.5
	c-0.5,2-0.7,4.1-1.5,6c-0.4-0.5-0.9-0.7-1.3,0c-0.2,0.3-0.2,0.8,0.1,1.1c0.6,0.3,0.7-0.4,1.1-0.6C350.2,192.8,349.2,199.3,349.2,206
	z"/>
<path class="st8" d="M12.8,248.7c0.3-0.1,0.6-0.3,1-0.4c111.8,0,223.7,0,335.5,0c1.2,0,2.4,0,3.6,0c-1.1,0.8-2.4,0.4-3.5,0.4
	c-106.9,0-213.9,0-320.8,0C23.3,248.7,18,248.7,12.8,248.7z"/>
<path class="st0" d="M350.4,221.6c-3.6,0-3.8-0.5-2.5-5.5c1,0.2,0.3,1.3,1.1,1.8c0.8-0.6,0.4-1.5,0.5-2.3
	C350,217.6,350.3,219.6,350.4,221.6z"/>
<path class="st0" d="M349.5,215.3c-1-2.6-0.7-5.1-0.2-7.7C349.3,210.2,349.4,212.8,349.5,215.3z"/>
<path class="st4" d="M351.3,186.2c-0.4,0.2-0.6,0.9-1.1,0.6c-0.4-0.2-0.3-0.7-0.1-1.1c0.4-0.7,0.9-0.4,1.3,0
	C351.4,185.9,351.3,186.1,351.3,186.2z"/>
<path class="st0" d="M350.9,224.5c-0.7-0.6-0.5-1.4-0.4-2.1C351,223,350.8,223.8,350.9,224.5z"/>
<path class="st4" d="M241.8,347.7c0,2.3,0,4.6-2.1,6.2c-1.9,0.9-3.9,0.6-5.9,0.7c-2.3,0-4.7,0-7,0c-2.8,0-5.1,0.9-6.8,3.3
	c-1.7,2.4-3.9,4-6.9,4.3c-0.8-0.6-1.7-0.4-2.6-0.4c-19,0-37.9,0-56.9,0c-0.9,0-1.8-0.2-2.6,0.4c-2.8-0.3-4.7-1.9-6.2-4
	c-1-1.3-2.1-2.3-3.5-3.2c-0.3-0.4-0.6-0.5-1-0.1c-0.2-0.1-0.4-0.1-0.5-0.2c-0.2-0.2-0.3-0.5-0.5-0.5c-4.8-0.2-9.7-0.6-14.5,0.2
	c-1.1-0.4-1.7-1.4-2.5-2.2c0.7-1.8,2.6-2.4,3.9-3.5c0.2,0,0.4,0,0.6-0.1c0.4,0.1,0.5,1,1.2,0.4c0.4,0,0.7,0,1.1,0
	c3.2,0,6.4,0.1,9.6,0.1c4.8-0.1,8.3,2,11,5.7c0.5,0.7,0.8,1.6,1.8,1.9c0.6,1.1,1.7,0.7,2.6,0.7c18.7,0,37.3,0,56,0
	c0.9,0,1.8,0.2,2.5-0.5c1.1-0.7,1.7-1.7,2.4-2.7c0.6-0.9,1.1-2,2.2-2.5c3.1-1.5,6.1-3.2,9.8-2.6c2.3,0.3,4.7,0,7,0.1
	c1.9,0.1,2.8-0.5,2.2-2.5c0-0.6,0-1.2,0-1.8c0-10,0.1-19.9,0.1-29.9c0-2.1,0.2-4.2-0.3-6.2c0-0.5,0.3-1.2-0.5-1.4
	c-0.4-1.3-1.6-0.9-2.5-0.9c-5.5,0-11,0-16.4,0c0.3-2,1.3-2.8,3.4-2.1c1,0.3,2.1,0.4,3-0.3c2.1-1.5,4.5-1.6,6.9-1.5
	c2.7,0.1,5.3,0,8,0c0,0,0,0,0,0c0.3,0.4,0.7,0.5,1.1,0.4c2.6,1.5,2.9,3.9,2.9,6.6C241.7,322.3,241.8,335,241.8,347.7z M232.9,303.9
	c-0.5-0.1-0.7-0.3-1-0.2c-0.3,0-0.6,0.2-0.4,0.6c0.1,0.2,0.5,0.2,0.8,0.2C232.4,304.4,232.6,304.2,232.9,303.9z"/>
<path class="st0" d="M126.3,348.7c-1.4,1.1-3.2,1.7-3.9,3.5c-1.1-1.1-0.9-2.5-0.9-3.9c0-13,0-26,0-39c0-1-0.1-1.9-0.2-2.9
	c1-3,2.7-4.2,6.2-4.3c12.4,0,24.9,0,37.3,0c23.2,0,46.3-0.1,69.5-0.1c1.2,0,2.4,0.1,3.6,0.1c0,0.1,0,0.3,0,0.4c-2.7,0-5.3,0.1-8,0
	c-2.5-0.1-4.8,0.1-6.9,1.5c-0.9,0.7-2.1,0.6-3,0.3c-2.1-0.8-3.1,0.1-3.4,2.1c-2.1,0-4.2,0-6.3,0c-1.4-1.4-3.5-1.4-4.8,0
	c-3.4,0-6.8,0-10.2,0c-0.1-0.3-0.1-0.7-0.5-0.7c-0.4,0-0.4,0.4-0.5,0.7c-1.8,0-3.6,0-5.3,0c-1-1.4-1.9-1.4-2.9,0c-0.5,0-1,0-1.5,0
	c-1.9-1.9-4.9-1.9-6.3,0c-0.3,0-0.7,0-1,0c-1.1-1.5-2.3-1.5-3.4,0c-14.5,0-29.1,0-43.6,0c-1,0-2.1-0.5-2.9,0.6
	c-0.1,0.1-0.3,0.2-0.4,0.3c-0.2,0.2-0.4,0.3-0.6,0.5c-0.7,0.7-0.4,1.7-0.5,2.5c-0.3,8.6,0.6,17.2-0.5,25.8c-0.1,0.7-0.1,1.5,0.9,1.7
	c0,1.5,0,2.9,0,4.4c-2.1,1.5-2.1,4.1,0,5.3C126.3,348,126.3,348.4,126.3,348.7z"/>
<path class="st10" d="M151,362.2c0.8-0.6,1.7-0.4,2.6-0.4c19,0,37.9,0,56.9,0c0.9,0,1.8-0.2,2.6,0.4c-10.3,0-20.7,0.1-31,0.1
	C171.7,362.3,161.4,362.2,151,362.2z"/>
<path class="st10" d="M124.9,354.4c4.8-0.7,9.7-0.4,14.5-0.2c0.2,0,0.3,0.3,0.5,0.5C134.8,354.6,129.8,354.5,124.9,354.4z"/>
<path class="st10" d="M140.4,354.9c0.4-0.4,0.7-0.3,1,0.1C141,355,140.7,354.9,140.4,354.9z"/>
<path class="st3" d="M177.2,299.8c0.5,0,1,0,1.5,0C178.2,300.2,177.7,300.2,177.2,299.8z"/>
<path class="st0" d="M238.9,303c-0.4,0-0.8,0-1.1-0.4C238.2,302.7,238.6,302.9,238.9,303z"/>
<path class="st10" d="M167.5,54.3c15.7,0,31.4-0.1,47.2-0.1c1,0,2.1,0,3.1-0.1c3.9-0.5,6.6,1.2,7.9,5.1c-1.9-0.3-3.9-0.9-5.4,1.1
	c0,0,0,0,0,0c0.2-1.4-0.7-1.6-1.8-1.5c-3.4,0-6.8-0.1-10.1,0c-1.7,0-3.4-0.5-5,0.4c-16.2,0-32.3,0-48.5,0c-1-0.6-1.9-0.6-2.9,0
	c-0.3,0-0.7,0-1,0c-0.1-1.1-2.1-1.3-1.1-2.8c0.8-1.3,2.1-1.5,3.6-1.5c3,0.1,6.1,0.1,9.1,0C164.2,54.7,165.9,55.2,167.5,54.3z"/>
<path class="st1" d="M220.3,60.2c1.5-2,3.5-1.3,5.4-1.1c1.2,3.4-0.5,6.5-1.1,9.7c-3.4,17.8-6.6,35.6-9.5,53.5
	c-0.4,2.4-0.7,5-2.9,6.7c-1.1,0.1-2.2,0.1-2.4,1.5c0,0,0,0,0,0c-0.2,0.1-0.3,0.3-0.5,0.4c-0.3,0-0.6,0.1-1,0.1
	c0.1-1.2-1.4-1.4-1.5-2.5c0-0.2,0-0.4,0-0.6c2.8-1.1,4.2-3.1,4.7-6.1c2.7-18.9,6.4-37.7,9.8-56.6C221.6,63.4,221.8,61.6,220.3,60.2z
	 M223.7,63.1c0.3-0.8,1.3-1.5,0.5-2.5c-0.1-0.1-0.5-0.3-0.6-0.2C223,61.3,223.3,62.2,223.7,63.1z"/>
<path class="st1" d="M166,128.5c-0.5,1.5-2,1.3-3,1.3c-1.4,0.1-2.6,0.5-3.7,1.4c-1.9-0.3-3.5-0.9-4.9-2.3c-0.2-0.2-0.3-0.3-0.5-0.5
	c0,0,0,0,0,0c-0.2-0.2-0.3-0.3-0.5-0.5c-0.7-0.9-1.4-1.7-1.5-2.9c-0.1-0.3-0.3-0.6-0.4-1c-1.1-3.8-1.6-7.7-2.1-11.6
	c1.5-0.3,1.8-1.6,1.4-2.6c-1.1-3.1-1-6.5-2.2-9.6c-0.2-0.4-0.1-1.1-0.7-1c-0.3,0.1-0.6,0.7-0.8,1.1c-0.6-3.4-1.3-6.7-1.5-10.2
	c0.4-0.1,1.1-0.1,1.1-0.3c0.2-1.4,1-3.2,0.4-4.3c-1-1.8-0.9-3.8-1.5-5.6c-1.2-3.6-2.2-7.5-2.2-11.5c0-1.4,0.2-2.6-0.5-3.9
	c-1.1-2.1-0.3-3.5,2.2-4.1c-0.5,1.1-0.5,2.2-0.3,3.3c3.3,19,6.7,38,9.9,57c0.6,3.6,2.2,5.9,5.5,7.1C162.1,129,164.1,128.2,166,128.5
	z M147.4,93.5c-0.1-0.1-0.2-0.1-0.4-0.2c0,0-0.1,0.1-0.1,0.2c0.1,0.1,0.2,0.2,0.2,0.3C147.2,93.7,147.3,93.6,147.4,93.5z"/>
<path class="st11" d="M235.5,95.5c1.8-1,3.9-0.8,5.8-0.7c2,0.1,3.1-0.7,3.8-2.5c0.8-2.1,1.7-4.2,2.7-6.5c1.6,2.2,2.2,4.6,3,6.9
	c0.6,1.7,1.3,2.4,3.2,2.2c2-0.2,4.1-0.6,6.1,0.6c-1.8,1.1-3.6,2.4-5.5,3.4c-1.9,1.1-2.8,2.2-1.9,4.6c0.5,1.2,0.9,2.6,0.6,4.1
	c-0.4-0.2-0.7-0.3-1.1-0.4c-1.8-0.5-2.9-3.1-4.9-2.3c-1.8,0.7-3.2,2.3-4.8,3.6c-0.3,0.2-0.5,0.4-0.7,0.6c-0.3-1.7,0.7-3.3,0.5-5
	c0-1.4,2.1-2.8,0.3-4.1C240.3,98.2,238.2,96.4,235.5,95.5z"/>
<path class="st11" d="M110.2,108.9c-0.9-2.3,0.7-4.3,0.7-6.6c0.3-0.7,1.3-1.6,0.3-2.2c-2.1-1.2-3.7-3.2-6.2-3.8c0,0,0,0,0,0
	c0.2-0.5-0.3-0.5-0.5-0.6c-0.1-0.3-0.5-0.7,0.2-0.8c0.7-0.1,1.5-0.3,2.2-0.2c4.5,0.8,6.8-1.4,7.8-5.5c0.3-1.1,0.7-2.3,1.7-3.2
	c1.1,1.8,1.6,3.7,2.2,5.7c0.7,2.3,1.7,3.5,4.4,3.1c1.7-0.3,3.7-0.4,5.3,0.7c-0.6,0.3-1.2,0.6-1.7,0.9c-2.1,1.4-4.8,2.5-6.1,4.5
	c-0.8,1.3,0.6,3.9,1,6c0,0.1,0,0.2,0,0.2c-0.1,0.1-0.2,0.2-0.3,0.4c-1.4-0.9-2.9-1.7-4.2-2.7c-0.6-0.4-0.9-0.4-1.4,0
	C113.8,106.1,111.8,107.2,110.2,108.9z"/>
<path class="st11" d="M84.1,126.8c0.5-1.5,1.8-0.8,2.7-0.8c5.7-0.1,5.7-0.1,7.9-5.5c0.4-1,0.8-1.9,1.4-3.3c1.4,2.4,2,4.7,2.7,6.9
	c0.5,1.5,1.2,2,2.8,1.9c1.7-0.1,3.4,0,5.1,0c0.6,0,1.2,0,1.2,0.8c-2.7,1.1-4.8,3.2-7.3,4.6c-0.8,0.4-0.5,1-0.5,1.6
	c0,1.8,0.8,3.7,0.4,5.6c-2.1-0.8-3.6-3.3-5.5-2.7c-1.9,0.6-3.6,2.3-5.1,3.9c-0.1,0.1-0.3,0.2-0.4,0.2c0.2-1.5,0.3-3.1,0.5-4.6
	c0.4-1,0.7-2.1,1.1-3.1c0.2-0.5,0.4-0.8-0.2-1.2c-2.1-1-3.4-3.1-5.7-3.8c0,0,0,0,0,0C85,126.9,84.4,127,84.1,126.8z"/>
<path class="st11" d="M262.1,139.7c-0.9-1.6,0.4-3.2,0-4.8c0.2-1.2,1.8-2.5,0.2-3.5c-2.3-1.5-4.4-3.4-7.1-4.5c0-0.7,0.3-0.8,0.9-0.7
	c0.5,0.1,1.1,0.4,1.6,0.4c6.7,0,5.2,0.7,7.6-4.7c0.6-1.4,1-3,2.2-4.4c1.1,1.8,1.6,3.7,2.1,5.5c0.6,2.6,1.9,3.5,4.5,3.2
	c1.7-0.2,3.7-0.7,5.3,0.5c-1.2,0.8-2.4,1.6-3.6,2.4c-4.2,2.8-4.2,2.8-3.2,7.7c0.2,0.7,0.3,1.5,0.4,2.3c-2-1.2-4-3.3-5.7-3.1
	C265.5,135.9,263.9,138.3,262.1,139.7z"/>
<path class="st10" d="M145.1,60.5c-2.5,0.6-3.3,2-2.2,4.1c0.7,1.3,0.5,2.5,0.5,3.9c0,3.9,0.9,7.9,2.2,11.5c0.6,1.8,0.5,3.8,1.5,5.6
	c0.6,1-0.1,2.8-0.4,4.3c0,0.1-0.7,0.2-1.1,0.3c-1.1-6.1-2.2-12.2-3.3-18.3c-0.5-2.7-1.1-5.4-1.7-8c-1.2-4.8,0.1-7.8,4.1-9.5
	c1,1.6,2.9,3.1,1,5.3l0,0c-0.2,0.2-0.4,0.4-0.5,0.6C145.3,60.4,145.2,60.5,145.1,60.5z"/>
<path class="st1" d="M110.2,108.9c1.6-1.7,3.6-2.8,5.4-4.2c0.5-0.4,0.8-0.4,1.4,0c1.3,1,2.8,1.8,4.2,2.7c0.2,0,0.3,0.1,0.5,0.1
	c-0.1-0.2-0.2-0.3-0.2-0.5c0-0.1,0-0.2,0-0.2c-0.4-2-1.8-4.7-1-6c1.3-2,4-3,6.1-4.5c0.5-0.4,1.1-0.6,1.7-0.9c0.9,1-0.1,1.6-0.4,2.3
	c-0.2,0.3-0.5,0.7-0.8,0.9c-3.1,2.3-4.8,5-3.8,9.3c0.6,2.7-0.3,3.2-2.4,1.6c-3.1-2.3-5.8-2.3-8.7,0.2
	C111.3,110.5,110.1,110.9,110.2,108.9z"/>
<path class="st1" d="M241.8,109c0.2-0.2,0.5-0.4,0.7-0.6c1.6-1.2,3-2.8,4.8-3.6c2-0.8,3.1,1.8,4.9,2.3c0.4,0.1,0.7,0.3,1.1,0.4
	c0.4-1.5-0.1-3-0.6-4.1c-0.9-2.3,0-3.5,1.9-4.6c1.9-1.1,3.7-2.3,5.5-3.4c0.4,1.8-0.9,2.9-2,3.9c-2.4,2.1-3.9,4.3-2.9,7.7
	c0.3,1,0.6,2.6-0.3,3.2c-1.1,0.7-2.3-0.3-3.2-1.1c-2.6-2.2-4.9-1.6-7.3,0.3C243.5,110.1,242.2,111.3,241.8,109z"/>
<path class="st1" d="M89.4,140.1c0.1-0.1,0.3-0.1,0.4-0.2c1.5-1.6,3.2-3.4,5.1-3.9c1.9-0.6,3.4,1.9,5.5,2.7c0.4-1.9-0.4-3.8-0.4-5.6
	c0-0.6-0.3-1.2,0.5-1.6c2.5-1.4,4.6-3.5,7.3-4.6c0.3,1.6-0.6,2.7-1.7,3.5c-2.9,2.3-4.1,5.1-3.7,8.8c0.2,2.6-0.5,2.9-2.9,1.6
	c-0.4-0.2-0.8-0.5-1.2-0.8c-1.8-1.5-3.5-1.7-5.3,0.1c-0.5,0.6-1.3,1-2,1.3C89.9,141.8,89.4,141.3,89.4,140.1z"/>
<path class="st1" d="M262.1,139.7c1.8-1.4,3.4-3.7,5.3-3.9c1.8-0.2,3.7,2,5.7,3.1c-0.1-0.8-0.3-1.6-0.4-2.3c-1-4.9-1-4.9,3.2-7.7
	c1.2-0.8,2.4-1.6,3.6-2.4c0.9,0.8,0.2,1.5-0.2,2.1c-0.5,0.7-1.1,1.4-1.7,2c-2.7,2.1-4.1,4.6-3,8.1c0.2,0.8,0.5,2-0.3,2.5
	c-0.9,0.6-1.8-0.4-2.6-0.7c-0.1,0-0.1-0.1-0.2-0.1c-2.3-2.3-4.5-2.4-6.9-0.1C263.9,140.9,262.2,142.5,262.1,139.7z"/>
<path class="st10" d="M241.6,134.4c-4-1.4-4-1.4-8.2-0.2c-0.4-0.3-0.3-0.7-0.1-1c1.1-1.7,1.4-3.3-0.2-5c-0.4-0.4-0.9-1.2-0.4-1.7
	c0.5-0.6,1.3,0,1.7,0.2c2.4,1.5,4.5,0,7.3-0.6C239.6,129,239.6,131.7,241.6,134.4z"/>
<path class="st10" d="M132.6,126.4c-2.8,2.7-1.3,5.4-0.1,8.2c-2.8-2.1-5.5-2.7-8.1-0.2c-0.5-0.7-0.2-1.2,0-1.6
	c0.9-1.8,1.2-3.5-0.4-5c-0.3-0.3-0.5-0.9-0.4-1.3c0.1-0.4,0.7-0.4,1-0.2C127.1,128,129.7,127.1,132.6,126.4z"/>
<path class="st1" d="M145.8,59.6c1.8-2.2,0-3.7-1-5.3c7.6,0,15.2,0,22.7-0.1c-1.6,0.9-3.3,0.4-4.9,0.4c-3,0.1-6.1,0.1-9.1,0
	c-1.5,0-2.7,0.2-3.6,1.5c-0.9,1.5,1.1,1.8,1.1,2.8c-1.3,0.1-2.6,0.1-3.9,0.2C146.7,59.3,146.2,59.5,145.8,59.6z"/>
<path class="st10" d="M147.2,100.3c0.3-0.4,0.5-1,0.8-1.1c0.6-0.1,0.6,0.6,0.7,1c1.2,3.1,1.1,6.5,2.2,9.6c0.3,1,0,2.3-1.4,2.6
	C148.3,108.5,147.9,104.4,147.2,100.3z"/>
<path class="st10" d="M245.5,153.8c-0.7,0.6-1.5,0.4-2.3,0.4c-12.6,0-25.2,0-37.8,0c-0.9,0-1.8,0.3-2.5-0.5c12.7,0,25.4,0,38,0.1
	C242.5,153.7,244,153.7,245.5,153.8z"/>
<path class="st8" d="M255.3,126.8c2.6,1,4.7,3,7.1,4.5c1.6,1-0.1,2.3-0.2,3.5c-1.6-1.7-3.3-3.5-5-5.2
	C256.4,128.8,255.7,127.9,255.3,126.8z"/>
<path class="st8" d="M235.5,95.5c2.7,0.9,4.8,2.7,7,4.4c1.8,1.3-0.3,2.7-0.3,4.1c0.2-1.1-0.3-1.9-1.1-2.7
	C239.1,99.5,236.8,98,235.5,95.5z"/>
<path class="st1" d="M85.1,127.4c2.3,0.6,3.7,2.7,5.7,3.8c0.6,0.3,0.4,0.7,0.2,1.2c-0.4,1-0.7,2.1-1.1,3.1c0.3-1.4-0.5-2.4-1.3-3.4
	C87.3,130.6,85.2,129.7,85.1,127.4z"/>
<path class="st4" d="M104.9,96.4c2.5,0.6,4.1,2.6,6.2,3.8c1.1,0.6,0,1.5-0.3,2.2C108.4,100.9,106.2,99.1,104.9,96.4z"/>
<path class="st10" d="M209.7,130.4c0.3-1.4,1.4-1.4,2.4-1.5C211.5,129.8,210.7,130.3,209.7,130.4z"/>
<path class="st1" d="M312,148.8c0.6,0.4,0.6,0.9,0.1,1.4C312.1,149.8,312,149.3,312,148.8z"/>
<path class="st10" d="M151.5,124.1c0.1,0.3,0.3,0.6,0.4,1C151.8,124.8,151.7,124.4,151.5,124.1z"/>
<path class="st1" d="M84.1,126.8c0.3,0.2,0.9,0.1,1,0.7C84.5,127.6,84.3,127.2,84.1,126.8z"/>
<path class="st10" d="M209.2,130.8c0.2-0.1,0.3-0.3,0.5-0.4C209.6,130.5,209.4,130.7,209.2,130.8z"/>
<path class="st4" d="M104.5,95.8c0.2,0.1,0.7,0.1,0.5,0.6C104.8,96.2,104.6,96,104.5,95.8z"/>
<path class="st10" d="M153.9,128.5c0.2,0.2,0.3,0.3,0.5,0.5C154.2,128.8,154.1,128.6,153.9,128.5z"/>
<path class="st10" d="M153.4,128c0.2,0.2,0.3,0.3,0.5,0.5C153.8,128.3,153.6,128.1,153.4,128z"/>
<path class="st11" d="M145.8,59.6c0.5-0.2,0.9-0.3,1.4-0.5c0.8,0.6,1.7,0.4,2.6,0.4c22.2,0,44.4,0,66.6,0c0.9,0,1.8,0.2,2.6-0.4
	c0.7-0.1,0.6,1.1,1.4,1c0,0,0,0,0,0c1.5,1.4,1.3,3.2,1,5c-3.4,18.8-7.1,37.6-9.8,56.6c-0.4,3-1.9,5-4.7,6.1
	c-6.4,0.1-12.9,0.1-19.3,0.2c-0.7,0-1.3,0.4-1.8,0.8c-0.7,0.6-1.5,1.1-2.2,1.7c-0.8,0.7-1.4,1.8-2.7,1.3c-0.6-2.3-2.4-3.1-4.4-3.8
	c-5.3,0-10.7-0.1-16-0.1c-3.3-1.2-4.9-3.5-5.5-7.1c-3.2-19-6.6-38-9.9-57c-0.2-1.1-0.2-2.2,0.3-3.3c0.1-0.1,0.2-0.2,0.1-0.3
	C145.4,60.1,145.6,59.8,145.8,59.6L145.8,59.6z M209.3,78.6L209.3,78.6c0.4,0,0.6-0.2,0.8-0.6c0.3-0.3,0.7-0.7,1-1
	c0.4-0.2,0.5-0.5,0.5-0.9c0.1-0.1,0.1-0.2,0-0.3c1-3.9,1.4-7.9,1.9-11.8c0.1-0.1,0.1-0.2,0-0.3c0.7-1.4,0.9-2.4-1.3-2.4
	c-19.3,0-38.7,0-58,0c-2.1,0-2.3,0.9-1.5,2.5c0,0.2,0,0.5,0,0.7c0,1.9,0.4,3.7,0.9,5.5c0,0.1,0,0.2,0,0.4c-0.1,1.8,0.3,3.5,0.9,5.1
	c0,0.2,0,0.5,0,0.7c0,1.8,0.3,3.4,1,5.1c0,0.4,0,0.8,0.1,1.2c0.1,0.8,0.1,1.9,0.7,2.2c0.8,0.4,1.3-0.7,1.9-1.2
	c2.6-2.6,5.2-5.1,7.6-7.8c1.3-1.4,2-1.3,3.2,0c2.3,2.4,4.9,4.7,7.2,7.1c1.1,1.2,1.7,1,2.6-0.1c3.2-3.4,6.5-6.7,9.7-10.2
	c1.4-1.6,2.4-1.8,4-0.1c2.5,2.7,5.2,5.3,7.9,7.8c4.3,4.1,4.3,4,8.1-0.7C208.9,79.1,209.1,78.9,209.3,78.6z M208.3,90.5
	c-2.4,1.6-4.1,3.4-5.8,5.2c-1.1,1.1-1.8,1-2.7,0c-2.6-2.7-5.3-5.2-7.8-8c-0.9-1-1.4-0.9-2.3,0c-3.5,3.7-7.1,7.3-10.5,11.1
	c-0.9,1-1.5,1.1-2.5,0.1c-2.5-2.5-5-4.8-7.5-7.2c-0.6-0.6-1-1.2-1.9-0.3c-2.6,2.8-5.4,5.6-8.1,8.4c-0.6,0.6-0.9,1.2-0.7,2.2
	c1,5.8,2,11.6,2.9,17.4c0.3,1.9,1.2,2.5,3.1,2.5c12.3-0.1,24.6-0.1,36.9,0c1.6,0,2.2-0.5,2.5-2.1c0.8-5.6,1.9-11.1,2.8-16.7
	C207.4,99,208.3,95,208.3,90.5z"/>
<path class="st6" d="M292.2,71.7c-0.1,0.6-0.2,1.3-0.6,1.8c-0.7,0.9-0.4,1.6,0.6,2.2c1.6,1,2.7,2.7,5,2.2c0.8-0.2,1.6,0.8,1,1.7
	c-1.1,1.9-0.1,3.1,1.1,4.1c1.1,1,1.5,2.2,2.1,3.4c0.7,1.4,0,1.7-1.2,1.7c-0.9-1.2-1.8-2.3-2.8-3.5c0-0.4-0.2-0.7-0.6-0.9
	c-1.4-1-2.2-2.5-3.3-3.9c-0.2-0.2-0.3-0.3-0.5-0.5c0,0,0,0,0,0c0-0.4-0.2-0.7-0.5-0.9c0,0,0,0,0,0c-0.2-0.2-0.4-0.3-0.6-0.5
	c-5.7-6-11.5-11.7-17.9-17c-9.4-7.7-19.7-14.1-30.7-19.2c-11.7-5.4-23.8-9.5-36.6-11.5c-10.7-1.7-21.4-2.5-32.3-1.9
	c-13.7,0.7-27,3.3-40,7.8c-17.1,6.1-32.5,15-46.2,26.9C75,75.3,63.8,89,55.5,104.8c-6.8,13-11.4,26.8-13.3,41.5
	c-0.2,1.8-0.7,3.7-0.8,5.5c0,2.1-0.9,2.7-2.8,2.4c-0.4-0.1-0.8,0.1-1.2,0.1c-0.2-0.1-0.4-0.2-0.6-0.2c0.6-8.4,2.2-16.5,4.4-24.6
	c5.3-19.3,14.3-36.5,26.9-52c11-13.6,24.3-24.4,39.3-33.3C125.6,33.5,145.2,27,166,24.8c15.6-1.6,31.2-0.9,46.7,2.3
	c26.7,5.4,50,17.7,70.3,35.7c0.2,1.7,0.4,2,1.5,1.3c0.3,0.2,0.5,0.4,0.8,0.5c0.5,0.6,1,1.2,1.5,1.7c0.2,0.2,0.3,0.3,0.5,0.5
	c0,0,0,0,0,0c0.2,0.2,0.3,0.3,0.5,0.5c0,0,0,0,0,0c0.2,0.2,0.3,0.3,0.5,0.5c0,0,0,0,0,0c0.2,0.2,0.4,0.3,0.6,0.5
	c0.3,0.3,0.6,0.6,0.9,0.9c0.2,0.2,0.3,0.4,0.5,0.5c0,0,0,0,0,0c0.2,0.2,0.3,0.3,0.5,0.5c0,0,0,0,0,0c0.2,0.2,0.4,0.3,0.6,0.5
	c0.1,0.1,0.3,0.3,0.4,0.4C291.9,71.3,292,71.5,292.2,71.7L292.2,71.7z"/>
<path class="st8" d="M70,158.6c-2.3-1.1-4.7-0.3-7.1-0.5c-1.2-0.1-2.4,0-3.6,0c0.1-1.1,0.8-1.4,1.7-1.5c1.2-0.1,2.2-0.6,3.1-1.4
	c3.7-0.6,7.5-0.8,11.3-0.1c1.7,0.3,3.3-0.2,5-0.3c2.8,0,5.5,0.4,8.3,0c3.8-0.4,7.7,0.2,11.5,0.5c3.3,0.3,6.5,0.3,9.8-0.1
	c1.9-0.3,4.2-0.2,6.2,0.1c3.9,0.6,7.7,0,11.6,0.4c6.6,0.7,13.3,1.1,20,1c1.2,0,2.3,0.4,2.2,2c-3.1,0.2-6.1,0.2-9.2,0
	c-0.7-0.7-1.3-0.7-2,0c-13.7,0.1-27.5,0.1-41.2,0.1C88.4,158.7,79.2,158.6,70,158.6z"/>
<path class="st3" d="M180.7,131.8c1.4,0.5,1.9-0.6,2.7-1.3c0.7-0.6,1.5-1.1,2.2-1.7c0.1,0.6,0.1,1.2-0.1,1.9
	c-1.8,5.1-1.8,10.1,2.3,14.7c-3.1,0-5.8,0-8.6,0c-0.8,0-1.1-0.3-0.7-1c2.3-3.6,2.4-7.6,1.6-11.6C180.1,132.4,180.3,132,180.7,131.8z
	"/>
<path class="st1" d="M37,154.1c0.2,0.1,0.4,0.2,0.6,0.2c0.2,0.2,0.5,0.7,0.6,0.7c3-0.8,5.5,0.7,8.1,1.6c0,0.5,0,1,0,1.5
	c-0.6,0-1.3,0-1.9,0c0-0.3-0.1-0.7-0.5-0.7c-0.4,0-0.4,0.4-0.5,0.7c-1,0-2,0-2.9,0c-3.4-0.8-6.8-0.8-10.2,0c-1.8,0-3.6,0-5.4,0
	c-2.4-1.1-4.9-0.2-7.3-0.5c0.8-1.4,1.9-2.4,3.5-2.9c0.3-0.1,0.6-0.3,0.9-0.4c0.2,0.2,0.3,0.2,0.5-0.1c0,0-0.1-0.1-0.1-0.1
	c0.4,0.1,0.7,0.1,1.1,0.2c2.3,0.1,4,2.2,6.5,1.9c1.7-0.2,3.2-0.5,3.7-2.4c0.4-1.6,0.9-0.3,1.4,0c0.1,0.1,0.1,0.3,0,0.4
	c0.1,0.3,0.2,0.7,0.4,0.7c0.4,0.1,0.5-0.3,0.5-0.6C36.3,154.2,36.7,154.1,37,154.1z"/>
<path class="st1" d="M64.2,155.1c-0.9,0.8-1.9,1.4-3.1,1.4c-1,0.1-1.7,0.4-1.7,1.5c-0.3,0-0.7,0-1,0c-0.5-0.6-1-0.6-1.4,0
	c-0.7,0-1.3,0-2,0c-1-1.5-1.9-1.5-2.9,0c-1.5,0-2.9,0-4.4,0c0-0.5,0-1,0-1.5c4.7-3.1,10-2.3,15.2-2.4
	C63.5,154.2,63.9,154.6,64.2,155.1z"/>
<path class="st8" d="M156.3,158.6c-1.1,0-2.2,0-3.4,0c0-1,0.4-1.4,1.4-1.5c2.6-0.2,5.2-0.6,7.8-1.3c2.1-0.6,3.9,1.3,6.2,1.5
	c-0.9,1.2-1.9,0.7-2.8,0.8C162.5,158.4,159.3,157.4,156.3,158.6z"/>
<path class="st2" d="M187.4,128c6.4-0.1,12.9-0.1,19.3-0.2c0,0.2,0,0.4,0,0.6c-0.5,0-1,0-1.4,0c-1,0-1.9,0-2.9,0
	c-4.2,0-8.3,0-12.5,0C189.1,128.4,188.2,128.7,187.4,128z"/>
<path class="st2" d="M160.2,127.9c5.3,0,10.7,0.1,16,0.1c-3.4,0.9-6.8,0.2-10.2,0.4C164.1,128.2,162.1,129,160.2,127.9z"/>
<path class="st8" d="M170.3,157.6c2.1-0.6,4.3-0.6,6.4-0.1C174.7,158.3,172.5,158,170.3,157.6z"/>
<path class="st1" d="M202.4,128.5c1,0,1.9,0,2.9,0C204.4,129.9,203.4,129.9,202.4,128.5z"/>
<path class="st8" d="M47.7,156.6c0,0.5,0,1,0,1.5c-0.5,0-1,0-1.5,0c0-0.5,0-1,0-1.5C46.7,156.6,47.2,156.6,47.7,156.6z"/>
<path class="st1" d="M314.4,150.5c0.1,0.1,0.2,0.2,0.3,0.3c-0.1,0.1-0.2,0.1-0.4,0.2c0,0-0.1-0.1-0.1-0.2
	C314.3,150.7,314.4,150.6,314.4,150.5z"/>
<path class="st5" d="M296.9,84.3c0.4,0.2,0.6,0.5,0.6,0.9C297.3,84.9,297.1,84.6,296.9,84.3z"/>
<path class="st5" d="M292.6,79c0.4,0.2,0.5,0.5,0.5,0.9C292.8,79.7,292.6,79.4,292.6,79z"/>
<path class="st5" d="M292,78.5c0.2,0.2,0.4,0.3,0.6,0.5C292.4,78.9,292.2,78.7,292,78.5z"/>
<path class="st5" d="M293.1,79.9c0.2,0.2,0.3,0.3,0.5,0.5C293.5,80.3,293.3,80.1,293.1,79.9z"/>
<path class="st9" d="M35.1,154.1c0-0.1,0-0.3,0-0.4c3.8-36.3,19.2-66.9,45.6-91.9c7-6.6,14.7-12.2,22.9-17.3
	c16.1-10,33.4-16.6,52-20c12.2-2.3,24.5-2.7,36.9-1.8c15.8,1.1,31,4.4,45.6,10.3c18,7.2,33.9,17.7,48,31c-0.3,0.2-0.5,0.5-0.8,0.7
	c-0.3-0.2-0.5-0.4-0.8-0.5c-0.5-0.4-1-0.9-1.5-1.3c-20.3-18-43.6-30.2-70.3-35.7c-15.5-3.1-31.1-3.9-46.7-2.3
	c-20.9,2.2-40.4,8.7-58.5,19.4c-15,8.9-28.3,19.7-39.3,33.3c-12.6,15.5-21.6,32.8-26.9,52c-2.2,8.1-3.8,16.3-4.4,24.6
	c-0.3,0-0.6,0.1-0.9,0.1C35.7,154.2,35.4,154.2,35.1,154.1z"/>
<path class="st7" d="M285.4,64.6c0.3-0.2,0.5-0.5,0.8-0.7c3.5,3,6.9,6.2,9.4,10.2c-1.8,0.1-2-1.9-3.4-2.5c0,0,0,0,0,0
	c-0.2-0.2-0.3-0.4-0.5-0.6c-0.1-0.1-0.3-0.3-0.4-0.4c-0.2-0.2-0.4-0.3-0.6-0.5c0,0,0,0,0,0c-0.2-0.2-0.3-0.3-0.5-0.5c0,0,0,0,0,0
	c-0.2-0.2-0.3-0.4-0.5-0.5c-0.3-0.3-0.6-0.6-0.9-0.9c-0.2-0.2-0.4-0.3-0.6-0.5c0,0,0,0,0,0c-0.2-0.2-0.3-0.3-0.5-0.5c0,0,0,0,0,0
	c-0.2-0.2-0.3-0.3-0.5-0.5c0,0,0,0,0,0c-0.2-0.2-0.3-0.3-0.5-0.5C286.3,65.7,285.8,65.2,285.4,64.6z"/>
<path class="st7" d="M297.5,75.6c-0.4,0-0.7-0.1-0.9-0.5C297,75,297.3,75.2,297.5,75.6z"/>
<path class="st7" d="M296.5,75.1c-0.2-0.2-0.3-0.3-0.5-0.5C296.4,74.5,296.6,74.7,296.5,75.1z"/>
<path class="st7" d="M296.1,74.6c-0.2-0.2-0.3-0.3-0.5-0.5C296,74,296.1,74.2,296.1,74.6z"/>
<path class="st8" d="M298.3,161.1c0.6,1,1.7,0.8,2.6,0.8c5.6,0,11.1,0,16.7,0c1.1,0,2.2-0.2,3.1,0.9c0.5,0.7,1.4,0.5,2,0.1
	c1.3-1.1,2.8-1,4.4-1c6.6,0,13.2,0,19.9,0c1.1,0,2.4-0.3,2.9,1.1c0.5,1.5-1.3,1.4-1.7,2.2c-0.9,0-1.7-0.1-2.6,0
	c-1,0.1-2.3-0.6-2.8,0.9c-37.5,0-74.9,0-112.4,0c-1,0-2.1-0.3-3,0.5c-0.7,0-1.3,0-2,0c-1.4-0.7-2.9-0.7-4.4,0c-0.8,0-1.6,0-2.4,0
	c-0.8-0.7-1.7-0.4-2.5-0.4c-17.9,0-35.7,0-53.6,0c-0.9,0-1.8-0.3-2.5,0.4c-1.6,0-3.2,0-4.9,0c-0.9-0.8-2-0.4-3-0.4
	c-25,0-50,0-75.1,0c-0.3-1.1-1.1-0.9-1.9-1c-6,0-12.1,0.3-18.1-0.5c-4.1-0.5-8.2-0.6-12.3,0c-0.7,0.1-1.8,0.4-2.2-0.4
	c-0.4-0.8,0.6-1.2,1-1.8c0.6-0.9,1.6-1,2.3-0.5c1.5,1.1,3.1,1.2,4.8,1.2c1.7,0.1,2.3-0.6,2.3-2.2c16.6-0.4,33.3-0.2,50-0.2
	c61,0,122.1,0,183.1,0C289.8,161,294.1,161.1,298.3,161.1z"/>
<path class="st8" d="M16.6,161.1c-1.8,0.7-3.7,0.2-5.6,0.3C12.9,160.7,14.7,161.1,16.6,161.1z"/>
<path class="st8" d="M36,161.1c-0.9,0.5-1.9,0.5-2.8,0C34.1,161.1,35.1,161.1,36,161.1z"/>
<path class="st10" d="M138.9,158.6c0.7-0.7,1.3-0.7,2,0C140.2,158.6,139.5,158.6,138.9,158.6z"/>
<path class="st10" d="M22.4,154.1c-0.1,0.2-0.3,0.3-0.5,0.1C22.1,154.1,22.3,154.1,22.4,154.1z"/>
<path class="st8" d="M30.2,158c3.4-0.8,6.8-0.8,10.2,0C37,158,33.6,158,30.2,158z"/>
<path class="st8" d="M52.1,158c1-1.5,1.9-1.5,2.9,0C54,158,53,158,52.1,158z"/>
<path class="st8" d="M43.3,158c0-0.3,0.1-0.7,0.5-0.7c0.4,0,0.4,0.4,0.5,0.7C44,158,43.6,158,43.3,158z"/>
<path class="st8" d="M56.9,158c0.5-0.6,1-0.6,1.4,0C57.9,158,57.4,158,56.9,158z"/>
<path class="st6" d="M147.5,279.3c0.1,0.3-0.1,0.4-0.4,0.5c-1.4,0.1-2-0.4-2-1.9c0.1-2.9,0-5.8,0-8.7c0.6-0.5,1.3-0.5,1.9,0
	C147.4,272.5,146.5,275.9,147.5,279.3z"/>
<path class="st8" d="M145.2,269.1c0,2.9,0.1,5.8,0,8.7c0,1.5,0.6,2.1,2,1.9c-0.9,0.7-1.9,0.8-2.9,0.6c-1.1-3.4-0.4-6.8-0.4-10.2
	C143.8,269.5,144.5,269.2,145.2,269.1z"/>
<path class="st2" d="M145.2,269.1c-0.7,0.1-1.4,0.4-1.4,1.1c0,3.4-0.6,6.8,0.4,10.2c-0.4,0.3-0.7,0.2-1-0.1c0-4.4,0-8.7,0-13.1
	c3.2-0.9,4.2-0.5,4.5,1.9c-0.2,0-0.4,0-0.6,0C146.5,268.6,145.8,268.7,145.2,269.1z"/>
<path class="st12" d="M143.2,267.2c0,4.4,0,8.7,0,13.1C142.5,275.9,142.5,271.6,143.2,267.2z"/>
<path class="st8" d="M147.1,269.1c0.2,0,0.4,0,0.6,0c0,0.2,0,0.3-0.1,0.5c0,0.1,0,0.3,0,0.4c0,3.1-0.1,6.2-0.1,9.3
	C146.5,275.9,147.4,272.5,147.1,269.1z"/>
<path class="st2" d="M147.6,270c0-0.1,0-0.3,0-0.4c0,0.1,0.1,0.2,0.1,0.3C147.8,270,147.7,270,147.6,270z"/>
<path class="st6" d="M172.6,276c0.1,1.1-0.5,1.4-1.3,1.3c-0.8-0.1-1.4-0.5-1.2-1.4c0.2-1.1,0.3-2.8,1.7-2.7
	C172.9,273.4,171.9,275.3,172.6,276z"/>
<path class="st2" d="M201.4,267.1c-0.5,0.8-1.3,0.7-2,0.6c-2.5-0.4-3,0.8-2.9,3c0.2,3.4,0.1,6.8,0,10.2c0,0.8,0.2,1.6-0.4,2.3
	c0,0-0.2,0-0.2,0c0-5.3,0.1-10.7,0.1-16C197.9,267.2,199.6,267.1,201.4,267.1z"/>
<path class="st12" d="M196.1,267.2c0,5.3-0.1,10.7-0.1,16C195.5,277.9,195.2,272.5,196.1,267.2z"/>
<path class="st12" d="M221.3,265.3c0.1,5,0.1,10,0.2,15c-0.1-0.1-0.4-0.2-0.4-0.3C220.8,275,220.4,270.1,221.3,265.3z"/>
<path class="st13" d="M342.9,211.9c-0.4-0.2-0.7-0.5-0.7-0.9c0.2-3.2-0.7-6.5,0.5-9.7C342.7,204.8,342.4,208.3,342.9,211.9z"/>
<path class="st0" d="M346.8,214.1c0.1,0.1,0.4,0.3,0.4,0.5c0.1,0.4-0.2,0.5-0.6,0.5c-0.4,0-0.5-0.3-0.5-0.7
	C346.2,214.3,346.3,214,346.8,214.1z"/>
<path class="st11" d="M349.3,168.3c-17,0.7-33.9,0.3-50.9,0.3c-92.9,0-185.8,0-278.7,0c-1.5,0-3.1-0.3-4.3,1.1c-0.3-1-1-1.8-0.7-3
	c0.6,0,1.3,0,1.9-0.1c3.2,0,6.5,0,9.7,0c1.3,0,2.6,0,3.9,0c12.6,0,25.2,0,37.8,0c1.5,0,2.9,0,4.4,0c1.1,0,2.3,0,3.4,0
	c9,0,18.1,0.1,27.1,0.1c17.3,0,34.7,0,52-0.1c1.6,0,3.2,0,4.9,0c19.6,0,39.1,0,58.7,0c0.8,0,1.6,0,2.4,0c1.5,0,2.9,0,4.4,0
	c0.7,0,1.3,0,2,0c0.9,0,1.8,0.1,2.7,0.1c22.9,0,45.8,0,68.6,0c15.5,0,31-0.1,46.6-0.1c1,0,2,0,2.9,0
	C348.9,166.8,349.6,167.2,349.3,168.3z"/>
<path class="st11" d="M22.6,207.2c2,3.1,1.1,6.5,0.6,9.6c-1.4,9.1-3.3,18.1-6.1,27c-1.3,0.3-1.4-0.2-1.2-1.4
	c1.6-6.8,3.2-13.6,4.7-20.4C21.8,217.1,22.3,212.2,22.6,207.2z"/>
<path class="st10" d="M154.9,166.8c-17.3,0-34.7,0.1-52,0.1c-9,0-18.1-0.1-27.1-0.1c0.3-0.2,0.7-0.3,1-0.5c25,0,50,0,75.1,0
	C152.9,166.3,154,166,154.9,166.8z"/>
<path class="st10" d="M72.4,166.7c-1.5,0-2.9,0-4.4,0C69.5,166,71,166.1,72.4,166.7z"/>
<path class="st10" d="M30.2,166.7c-1.3,0-2.6,0-3.9,0C27.6,166.1,28.9,166.1,30.2,166.7z"/>
<path class="st4" d="M10.8,248.3c0.1-0.4,0.2-0.9,0.8-0.9c0.1,0,0.4,0.3,0.3,0.4C11.7,248.4,11.2,248.2,10.8,248.3
	C10.8,248.3,10.8,248.3,10.8,248.3z"/>
<path class="st10" d="M16.6,166.7c-0.6,0-1.3,0-1.9,0.1C15.3,166.1,16,166.2,16.6,166.7z"/>
<path class="st1" d="M347.9,166.7c-1,0-2,0-2.9,0c-0.7-0.6-1.6-0.3-2.4-0.4c0.5-1.5,1.8-0.8,2.8-0.9c0.8-0.1,1.7,0,2.6,0
	C347.9,165.8,347.9,166.2,347.9,166.7z"/>
<path class="st4" d="M349.1,169.3c0.1,0,0.2,0,0.3-0.1c0.3,0.6,0.7,1.2,0.4,2c-0.2-0.1-0.5-0.3-0.7-0.4
	C349,170.2,349,169.7,349.1,169.3z"/>
<path class="st4" d="M347.1,178.4c0.1-0.4,0.2-0.7,0.3-1.1C347.3,177.7,347.2,178,347.1,178.4z"/>
<path class="st4" d="M348,174.5c0.1-0.4,0.2-0.7,0.4-1.1c0,0.4,0,0.7,0.1,1.1l0,0C348.3,174.5,348.1,174.5,348,174.5z"/>
<path class="st4" d="M346.1,182.3c0.1-0.4,0.2-0.7,0.3-1.1C346.3,181.6,346.2,181.9,346.1,182.3z"/>
<path class="st4" d="M348.4,174.5c0.1,0,0.1,0.1,0.2,0.1C348.5,174.6,348.5,174.6,348.4,174.5C348.4,174.6,348.4,174.5,348.4,174.5z
	"/>
<path class="st13" d="M236.2,346.7c0.6,2-0.2,2.6-2.2,2.5c-2.3-0.1-4.7,0.2-7-0.1c-3.7-0.5-6.7,1.2-9.8,2.6
	c-1.1,0.5-1.6,1.6-2.2,2.5c-0.7,1-1.3,2-2.4,2.7c-17.6,0-35.1,0-52.7,0c-2.8,0-5.6-0.1-8.4-0.2c-0.9-0.3-1.3-1.2-1.8-1.9
	c-2.7-3.7-6.2-5.8-11-5.7c-3.2,0.1-6.4,0-9.6-0.1c0-10.8,0-21.6,0-32.4c1.8,0.8,0.7,2.6,1.4,3.8c0.4,0.7,0.4,2,1.2,1.8
	c2.2-0.6,2.3,0.8,2.6,2.2c0.1,0.5,0.4,1.1,1.1,1.2c0.9,0,0.9-0.7,1.1-1.3c0.4-1.5,1.5-2.7,2.8-3.1c2.4-0.6,4.8-1.5,7.3-1.2
	c-0.7,1.8-2.1,2.5-3.9,2.4c-0.4,0-0.9-0.1-1,0.4c-0.1,0.2,0.1,0.6,0.2,0.6c2.8,0.8,2.3,2.7,1.5,4.6c-0.1,0.3-0.2,0.8,0.6,1.1
	c2.1-2.2,4.5-1.6,7,0.1c-1.1-2.7-1.4-5,1.6-6.6c-2.5,0.1-4.2-0.6-4.6-3c3.7-0.7,5.6,0.1,6.4,2.7c0.2,0.6,0,1.4,0.8,1.5
	c1,0.2,1.1-0.7,1.3-1.4c0.2-0.6,0.7-0.7,1.3-1c2.2-1,4.5-1.5,6.9-0.9c-1.2,1.5-3.1,1.6-4.7,2.1c0,0.7,0.5,1,0.9,1.1
	c1.6,0.6,1.9,1.7,1.3,3.3c-0.2,0.5-0.7,1.1-0.2,1.6c0.6,0.6,1.2-0.1,1.7-0.4c0.9-0.6,1.8-0.5,2.7-0.1c0.7,0.3,1.4,1.1,2.6,0.8
	c-1.2-2.4-1.9-4.8,1.6-6.4c-2.6,0.2-4.4-0.4-4.7-2.9c2-0.7,4-1,5,1.6c0.4,1.1,1.2,0.9,2,0.5c2.9-1.4,6.1-1.8,9.3-2
	c-0.5,2.7-2.7,2.9-5.1,3.1c3.8,1.2,2.3,3.9,2.1,6.5c2.6-2.8,5.1-1.7,7.4,0.2c0.5-2.1-2.8-4.2,0.6-5.6c0.4,1,1.1,1.6,2.2,1.5
	c1.1-0.1,1.3-1,1.4-1.9c0.2-1.4,1.4-1.8,2.5-2.3c1.9-0.9,3.8-0.5,5.7-0.1c-0.9,1.8-2.9,1.2-4.8,1.9c3.7,1.1,3.5,3.4,2.4,6.4
	c2.5-2.5,4.8-1.6,7.4-0.1c-1.8-2.7-1.4-4.7,0.9-6.4c0,0,0-0.2,0-0.2c0,0,0.1-0.1,0.1-0.1l-0.1,0.1c-1.6-0.3-3.9,0.7-4-2.3
	c1.3-1.6,2.8-1.5,4.3-0.5c1.1,0.8,2.2,0.9,3.4,0.7c3-0.5,5.9-1.2,8.9,0.1c-0.5,2.5-2.8,1.4-4.6,2.3c2.2,1.4,3.8,2.9,2.4,5.5
	c-0.2,0.3-0.2,0.7,0.2,0.8c0.5,0.1,1,0.2,1.5-0.4c1-1.4,2.3-1.1,3.6-0.4c0.6,0.3,1.2,0.9,2,0.8c-0.2,2.5,0.1,4.8,2.4,6.3
	c1.3,0.9,1.7,2.5,2.4,3.8c0.7,1.1-0.2,2.2-1.2,2c-1.5-0.3-2.4,0.5-3.5,1c-1.8-0.8-3.8-1.4-4.7-3.4c0-0.8,0.1-1.7-0.8-2.1
	c-0.6-0.3-1.1,0.1-1.5,0.5c-0.8,0.9-0.2,3.2,1,3.9c-1,0.2-1.9,0.4-3.3,0.6c2,1.2,3.1,2.6,2.7,4.9c1.2-0.5,2.1-0.9,3.2-0.3
	c1.5,0.8,1.5-0.4,1.6-1.4c0.7,0.4,0.5,1.1,0.6,1.7c0.1,0.7-0.8,1.5,0.2,1.9c0.8,0.4,1.6-0.2,2.2-0.6c1-0.7,2.1-1.4,3.3-1.1
	C230.1,347.6,233.1,347,236.2,346.7z M182.6,338.2c-0.6,3.1-2.7,3.5-5.3,3.4c2.2,1,3.3,2.2,2.5,4.6c-0.3,0.8,0.7,0.6,1.2,0.4
	c1.3-0.6,2.5-0.6,3.7,0c0.5,0.2,1.5,0.3,1.2-0.4c-1.1-2.2,0.7-3.2,2-4.9C185,342,183.6,340.8,182.6,338.2z M170.3,341.3
	c-2.5,0.2-4.5,0.6-4.9-2c-0.1-0.4-0.9-0.3-1,0c-0.6,2.6-2.9,1.9-5.1,2.5c2.3,1.2,4.1,2.3,2.3,5.5c2.5-1.6,4.3-1.5,6.6-0.6
	C166.3,344.1,168.2,343,170.3,341.3z M194.7,341.7c1.8,1.3,3.9,2.3,2,5.7c2.5-1.7,4.3-1.3,6.7-0.5c-2-2.7-0.3-4,1.3-5.6
	c-2.6,0.8-4.1-0.1-4.9-2.9C198.7,341.1,197.1,341.8,194.7,341.7z M146.7,338.6c-0.6,2.7-2.6,3-5.1,2.8c2.9,3,4.7,4.2,6.8,4.7
	c0.1,0,0.3-0.1,0.6-0.1c-1.3-2.2,1.4-2.8,1.8-4.7C148.7,341.9,147.6,340.7,146.7,338.6z"/>
<path class="st14" d="M236.2,346.7c-3,0.3-6,0.9-9.1,0.1c-1.2-0.3-2.3,0.4-3.3,1.1c-0.6,0.5-1.4,1-2.2,0.6c-1-0.5-0.1-1.3-0.2-1.9
	c-0.1-0.6,0.1-1.3-0.6-1.7l0,0c0.3-0.8,1.6-1,1.4-2.1l0,0.1c0.2-0.2,0.3-0.4,0.5-0.5l-0.1,0c1.1-0.5,2-1.4,3.5-1
	c1,0.2,1.9-0.9,1.2-2c-0.8-1.3-1.1-2.9-2.4-3.8c-2.3-1.6-2.6-3.8-2.4-6.3c0,0,0,0,0,0c0.7,0.1,1.6,0.2,1.5-0.8
	c-0.1-1.3-1.2-0.9-2-0.9l0,0c0.5-1.3,1.4-2.6,1-4.2c0.1-0.3,0.5-1,0.1-1c-2.5,0.6-3.8-1-5.2-2.7c-0.4,0.2-0.6,0.5-0.6,0.9l0,0
	c-2.9-1.3-5.9-0.6-8.9-0.1c-1.2,0.2-2.3,0.1-3.4-0.7c-1.5-1-3-1.1-4.3,0.5c-0.2-0.2-0.4-0.4-0.6-0.6c-0.2,0.2-0.5,0.3-0.7,0.5l0,0
	c-0.2,0.2-0.3,0.4-0.5,0.6c0,0.1,0,0.3-0.2,0.4c-1.9-0.5-3.8-0.8-5.7,0.1c-1.1,0.5-2.2,0.9-2.5,2.3c-0.2,0.9-0.3,1.8-1.4,1.9
	c-1.1,0.1-1.8-0.5-2.2-1.5c0,0,0.1,0.1,0.1,0.1c0.8-0.3,1.7-0.7,1.2-1.9c-0.7-1.7-3.1-2.8-5.1-2.4c-0.4-0.3-0.8-0.3-1.2,0
	c-3.2,0.2-6.4,0.6-9.3,2c-0.8,0.4-1.5,0.6-2-0.5c-1-2.5-2.9-2.3-5-1.6c-0.3,0.2-0.6,0.3-0.9,0.5c-0.1,0.2-0.3,0.3-0.4,0.5l0,0
	c-2.4-0.5-4.7-0.1-6.9,0.9c-0.5,0.2-1.1,0.4-1.3,1c-0.2,0.7-0.2,1.5-1.3,1.4c-0.9-0.1-0.7-0.9-0.8-1.5c-0.8-2.5-2.8-3.3-6.4-2.7
	c-0.3-0.1-0.6-0.1-0.8-0.2c-0.5-0.2-0.4,0.3-0.5,0.5l0,0c-2.5-0.3-4.9,0.6-7.3,1.2c-1.3,0.3-2.4,1.6-2.8,3.1
	c-0.2,0.6-0.2,1.4-1.1,1.3c-0.7,0-0.9-0.6-1.1-1.2c-0.3-1.4-0.4-2.8-2.6-2.2c-0.8,0.2-0.8-1.2-1.2-1.8c-0.7-1.2,0.4-3-1.4-3.8
	c0-2.3,0-4.5,0-6.8c1.1-0.3,2.2-0.5,3.3-0.5c33.4,0,66.9,0,100.3,0c2,0,2.6,0.6,2.6,2.6c-0.1,10-0.1,20,0,30c0,1-0.4,2.1,0.7,2.9
	C236.1,345.5,236.1,346.1,236.2,346.7z"/>
<path class="st11" d="M126.9,307.5c0.1-0.1,0.3-0.2,0.4-0.3c23,0,45.9,0,68.9,0c13.1,0,26.2,0.1,39.2,0.2c0.8,0.2,0.5,0.9,0.5,1.4
	c-1.1-0.1-2.3-0.2-3.4-0.2c-34,0-68,0-102,0c-0.6,0-1.3-0.2-1.8,0.4l-0.2,0.1c-0.3,1.8-0.4,3.7,0,5.5c0,0.5,0,0.9,0,1.4
	c-0.4,3.4-0.4,6.8,0,10.2c0,0.5,0,0.9,0,1.4c-0.4,3.1-0.4,6.2,0,9.3c0,0.8,0,1.6,0,2.4c-0.4,2.3-0.3,4.5,0,6.8
	c0.1,0.6,0.2,1.2-0.1,1.7c-0.5,0.1-0.9-0.2-1.3-0.5C127,334,126.9,320.7,126.9,307.5z"/>
<path class="st13" d="M128.7,308.9c0.5-0.6,1.2-0.4,1.8-0.4c34,0,68,0,102,0c1.1,0,2.3,0.1,3.4,0.2c0.4,2.1,0.3,4.2,0.3,6.2
	c0,10,0,19.9-0.1,29.9c-1.1-0.8-0.7-1.9-0.7-2.9c0-10-0.1-20,0-30c0-2-0.6-2.6-2.6-2.6c-33.4,0.1-66.9,0-100.3,0
	c-1.2,0-2.2,0.2-3.3,0.5C129,309.6,128.9,309.2,128.7,308.9z"/>
<path class="st10" d="M235.4,307.4c-13.1-0.1-26.2-0.2-39.2-0.2c-23,0-45.9,0-68.9,0c0.8-1.1,1.9-0.6,2.9-0.6c14.5,0,29.1,0,43.6,0
	c1.1,0,2.3,0,3.4,0c0.3,0,0.7,0,1,0c2.1,0,4.2,0,6.3,0c0.5,0,1,0,1.5,0c1,0,1.9,0,2.9,0c1.8,0,3.6,0,5.3,0c0.3,0,0.6,0,1,0
	c3.4,0,6.8,0,10.2,0c1.6,0,3.2,0,4.8,0c2.1,0,4.2,0,6.3,0c5.5,0,11,0,16.4,0C233.8,306.5,235,306,235.4,307.4z"/>
<path class="st2" d="M151.5,356.7c2.8,0.1,5.6,0.2,8.4,0.2c17.6,0,35.1,0,52.7,0c-0.7,0.8-1.7,0.5-2.5,0.5c-18.7,0-37.3,0-56,0
	C153.2,357.4,152.1,357.8,151.5,356.7z"/>
<path class="st10" d="M126.9,307.5c0,13.3,0.1,26.5,0.1,39.8c0,0.5-0.1,0.9-0.1,1.4c-0.2,0-0.4,0-0.6,0.1c0-0.3,0-0.7,0-1
	c0-1.8,0-3.6,0-5.3c0-1.5,0-2.9,0-4.4c0-10,0-20,0-30.1C126.5,307.8,126.7,307.6,126.9,307.5z"/>
<path class="st15" d="M128.7,308.9c0.2,0.3,0.3,0.6,0.5,1c0,2.3,0,4.5,0,6.8c0,10.8,0,21.6,0,32.4c-0.4,0-0.7,0-1.1,0
	c0.3-0.4,0.5-0.8,0.2-1.2c0.3-0.6,0.2-1.2,0.1-1.7c0.2-2.3,0.2-4.6,0-6.8c0-0.8,0-1.6,0-2.4c0.2-3.1,0.2-6.2,0-9.3
	c0-0.5,0-0.9,0-1.4c0-3.4,0-6.8,0-10.2c0-0.5,0-0.9,0-1.4c0.2-1.8,0.2-3.7,0-5.5L128.7,308.9z"/>
<path class="st9" d="M128.3,347.8c0.3,0.5,0.1,0.9-0.2,1.2c-0.6,0.6-0.8-0.3-1.2-0.4c0-0.5,0.1-0.9,0.1-1.4
	C127.4,347.6,127.8,347.8,128.3,347.8z"/>
<path class="st0" d="M232.9,303.9c-0.3,0.3-0.5,0.5-0.6,0.5c-0.3,0-0.7,0-0.8-0.2c-0.2-0.3,0.1-0.6,0.4-0.6
	C232.1,303.6,232.4,303.8,232.9,303.9z"/>
<path class="st4" d="M126.2,307.9c0,10,0,20,0,30.1c-1-0.2-1-0.9-0.9-1.7c1-8.6,0.2-17.2,0.5-25.8
	C125.8,309.6,125.5,308.7,126.2,307.9z"/>
<path class="st4" d="M184.5,306.5c-2.1,0-4.2,0-6.3,0C179.6,304.6,182.6,304.6,184.5,306.5z"/>
<path class="st4" d="M126.3,342.4c0,1.8,0,3.6,0,5.3C124.2,346.5,124.2,343.9,126.3,342.4z"/>
<path class="st4" d="M210.2,306.5c-1.6,0-3.2,0-4.8,0C206.7,305.1,208.8,305.1,210.2,306.5z"/>
<path class="st4" d="M177.2,306.5c-1.1,0-2.3,0-3.4,0C174.9,304.9,176.1,304.9,177.2,306.5z"/>
<path class="st4" d="M188.8,306.5c-1,0-1.9,0-2.9,0C186.9,305,187.9,305,188.8,306.5z"/>
<path class="st4" d="M195.1,306.5c-0.3,0-0.6,0-1,0c0.1-0.3,0.1-0.7,0.5-0.7C195,305.8,195.1,306.2,195.1,306.5z"/>
<path class="st12" d="M218.9,59.2c-0.8,0.6-1.7,0.4-2.6,0.4c-22.2,0-44.4,0-66.6,0c-0.9,0-1.8,0.2-2.6-0.4c1.3-0.1,2.6-0.1,3.9-0.2
	c0.3,0,0.7,0,1,0c1,0,1.9,0,2.9,0c16.2,0,32.3,0,48.5,0C208.6,59.1,213.7,59.1,218.9,59.2z"/>
<path class="st1" d="M218.9,59.2c-5.2-0.1-10.3-0.1-15.5-0.2c1.6-0.9,3.3-0.4,5-0.4c3.4-0.1,6.8,0,10.1,0c1.1,0,2,0.1,1.8,1.5
	C219.5,60.3,219.6,59.1,218.9,59.2z"/>
<path class="st1" d="M154.9,59c-1,0-1.9,0-2.9,0C152.9,58.4,153.9,58.4,154.9,59z"/>
<path class="st10" d="M223.7,63.1c-0.4-0.9-0.7-1.8,0-2.7c0,0,0.5,0.1,0.6,0.2C225,61.6,224,62.3,223.7,63.1z"/>
<path class="st10" d="M147.4,93.5c-0.1,0.1-0.2,0.2-0.2,0.3c-0.1-0.1-0.2-0.2-0.2-0.3c0,0,0.1-0.2,0.1-0.2
	C147.1,93.3,147.3,93.4,147.4,93.5z"/>
<path class="st1" d="M145.8,59.6c-0.2,0.2-0.4,0.4-0.5,0.6C145.4,60.1,145.6,59.8,145.8,59.6z"/>
<path class="st11" d="M121.5,107.1c0.1,0.2,0.2,0.3,0.2,0.5c-0.2,0-0.3-0.1-0.5-0.1C121.3,107.3,121.4,107.2,121.5,107.1z"/>
<path class="st3" d="M208.3,90.5c0,4.5-1,8.5-1.6,12.5c-0.9,5.6-2,11.1-2.8,16.7c-0.2,1.6-0.9,2.1-2.5,2.1c-12.3,0-24.6,0-36.9,0
	c-1.9,0-2.8-0.6-3.1-2.5c-0.9-5.8-1.9-11.6-2.9-17.4c-0.2-0.9,0.2-1.6,0.7-2.2c2.7-2.8,5.4-5.5,8.1-8.4c0.9-1,1.3-0.3,1.9,0.3
	c2.5,2.4,5,4.8,7.5,7.2c1,1,1.5,0.9,2.5-0.1c3.4-3.8,7-7.4,10.5-11.1c0.8-0.9,1.3-1,2.3,0c2.5,2.7,5.2,5.3,7.8,8c1,1,1.7,1.1,2.7,0
	C204.2,93.9,205.9,92.1,208.3,90.5z"/>
<path class="st15" d="M153.9,70.2c-0.1-0.1-0.1-0.2,0-0.4c0.1-1.9,0.1-3.8-0.9-5.5c0-0.2,0-0.5,0-0.7c0.2-1.7,1.4-1.7,2.7-1.7
	c5.7,0,11.3,0,17,0c12.9,0,25.7,0,38.6,0c1.2,0,2.6-0.3,2.6,1.6c0,0.1,0,0.2,0,0.3c-1.3,3.8-1.9,7.8-1.9,11.8c0,0.1,0,0.2,0,0.3
	c-0.2,0.3-0.3,0.6-0.5,0.9c-0.3,0.3-0.7,0.7-1,1c-0.4,0.1-0.7,0.2-0.8,0.6c0,0,0,0,0,0c-0.4,0.1-0.6,0.5-0.6,0.9
	c-3.9,4.7-3.9,4.8-8.1,0.7c-2.7-2.6-5.4-5.1-7.9-7.8c-1.6-1.7-2.5-1.5-4,0.1c-3.1,3.5-6.5,6.7-9.7,10.2c-1,1-1.5,1.3-2.6,0.1
	c-2.3-2.5-4.9-4.7-7.2-7.1c-1.2-1.3-1.9-1.4-3.2,0c-2.4,2.7-5,5.2-7.6,7.8c-0.5,0.5-1,1.6-1.9,1.2c-0.6-0.3-0.7-1.4-0.7-2.2
	c0-0.4,0-0.8-0.1-1.2c0.1-1.8,0.1-3.5-1-5.1c0-0.2,0-0.5,0-0.7C155,73.6,154.9,71.8,153.9,70.2z"/>
<path class="st14" d="M213.6,63.6c0-1.9-1.4-1.6-2.6-1.6c-12.9,0-25.7,0-38.6,0c-5.7,0-11.3,0-17,0c-1.3,0-2.5,0-2.7,1.7
	c-0.9-1.6-0.6-2.5,1.5-2.5c19.3,0,38.7,0,58,0C214.5,61.2,214.4,62.2,213.6,63.6z"/>
<path class="st14" d="M211.7,75.8c-0.1-4.1,0.6-8,1.9-11.8C213.1,67.9,212.7,71.9,211.7,75.8z"/>
<path class="st14" d="M152.9,64.4c1.1,1.7,1.1,3.6,0.9,5.5C153.3,68.1,152.9,66.3,152.9,64.4z"/>
<path class="st14" d="M154.8,76.1c1,1.6,1.1,3.3,1,5.1C155.2,79.5,154.8,77.8,154.8,76.1z"/>
<path class="st14" d="M153.9,70.2c1,1.6,1.1,3.3,0.9,5.1C154.2,73.7,153.8,72,153.9,70.2z"/>
<path class="st14" d="M211.1,77c0.2-0.3,0.3-0.6,0.5-0.9C211.7,76.5,211.6,76.8,211.1,77z"/>
<path class="st14" d="M209.3,78.6c0.1-0.4,0.4-0.6,0.8-0.6C210,78.4,209.7,78.6,209.3,78.6z"/>
<path class="st14" d="M208.7,79.4c0-0.4,0.2-0.7,0.6-0.9C209.1,78.9,208.9,79.1,208.7,79.4z"/>
<path class="st5" d="M283.1,62.7c0.5,0.4,1,0.9,1.5,1.3C283.5,64.7,283.2,64.4,283.1,62.7z"/>
<path class="st5" d="M291.7,71.1c0.2,0.2,0.3,0.4,0.5,0.6C292,71.5,291.9,71.3,291.7,71.1z"/>
<path class="st5" d="M286.8,66.3c0.2,0.2,0.3,0.3,0.5,0.5C287.2,66.7,287,66.5,286.8,66.3z"/>
<path class="st5" d="M287.3,66.8c0.2,0.2,0.3,0.3,0.5,0.5C287.7,67.2,287.5,67,287.3,66.8z"/>
<path class="st5" d="M287.8,67.3c0.2,0.2,0.3,0.3,0.5,0.5C288.1,67.6,288,67.5,287.8,67.3z"/>
<path class="st5" d="M288.3,67.8c0.2,0.2,0.4,0.3,0.6,0.5C288.7,68.1,288.5,68,288.3,67.8z"/>
<path class="st5" d="M289.8,69.2c0.2,0.2,0.3,0.4,0.5,0.5C290.1,69.6,289.9,69.4,289.8,69.2z"/>
<path class="st5" d="M290.7,70.2c0.2,0.2,0.4,0.3,0.6,0.5C291.1,70.5,290.9,70.4,290.7,70.2z"/>
<path class="st5" d="M290.3,69.7c0.2,0.2,0.3,0.3,0.5,0.5C290.6,70.1,290.4,69.9,290.3,69.7z"/>
<path class="st10" d="M35.1,154.1c0.3,0,0.6,0.1,0.9,0.1c-0.1,0.3-0.2,0.7-0.5,0.6C35.3,154.8,35.2,154.4,35.1,154.1z"/>
<path class="st10" d="M342.6,166.3c0.8,0.1,1.7-0.2,2.4,0.4c-15.5,0-31,0.1-46.6,0.1c-22.9,0-45.8,0-68.6,0c-0.9,0-1.8-0.1-2.7-0.1
	c0.9-0.8,2-0.5,3-0.5C267.7,166.3,305.1,166.3,342.6,166.3z"/>
<path class="st10" d="M218.4,166.7c-19.6,0-39.1,0-58.7,0c0.8-0.7,1.7-0.4,2.5-0.4c17.9,0,35.7,0,53.6,0
	C216.7,166.3,217.7,166,218.4,166.7z"/>
<path class="st10" d="M225.2,166.8c-1.5,0-2.9,0-4.4,0C222.3,166,223.8,166,225.2,166.8z"/>
<path class="st13" d="M285.7,189c0.6-1.9,0.3-3.9,0.2-5.9c0-1.4-1.3-1.6-2.3-1.9c-0.1-1-0.1-1.9-0.2-2.8c0.8,0.2,1,0.9,1.4,1.5
	c0.3,0.5,0.5,1.3,1.3,1.1c0.7-0.2,0.8-0.9,0.6-1.5c-0.2-0.7,0-1.1,0.7-1.1c-0.3,4.4-0.1,8.9-0.1,13.3c0,11.2,0,22.4,0,33.7
	c0,1.1,0.1,2.3,0.1,3.4c-1-0.7-0.6-1.8-0.6-2.7c0-11.4,0-22.9,0-34.3C286.8,190.8,287.4,189.4,285.7,189z"/>
<path class="st13" d="M125.2,231.3c0-13.2,0.1-26.5,0-39.7c0-2.2,0.7-2.8,2.7-2.6c2.8,0.2,5.7,0,8.5,0c0,0.2,0,0.4,0.1,0.7
	c-2.7,0-5.5,0.1-8.2,0c-1.9-0.1-2.5,0.6-2.5,2.5c0.1,12.2,0,24.4,0,36.5C125.8,229.5,126.1,230.5,125.2,231.3z"/>
<path class="st13" d="M277.5,231.3c0-12.8-0.1-25.7-0.1-38.5c0-4,0-4,4.1-3.8c-4,0.2-3.5,3-3.5,5.7c0,11.3,0,22.6,0,33.8
	C278.1,229.5,278.4,230.5,277.5,231.3z"/>
<path class="st13" d="M69,183.8c0,13.4,0.1,26.8,0.1,40.2c-0.8-0.6-0.6-1.4-0.6-2.2c0-11.9,0-23.8,0-35.8
	C68.5,185.2,68.4,184.4,69,183.8z"/>
<path class="st2" d="M223.7,226.9c0.1,0.1,0.2,0.2,0.2,0.3c0,0-0.1,0.1-0.1,0.2c-0.1-0.1-0.1-0.2-0.2-0.3
	C223.6,227.1,223.7,227,223.7,226.9z"/>
<path class="st14" d="M167,198.9c-3.9,0.6-7.7,0.1-11.6,0.3c-1.1,0.1-1.4-0.5-1.4-1.5c0-2.4,0-4.8,0-7.3c0-1.2,0.6-1.6,1.6-1.4
	c1.9,0.2,4-0.8,5.5,1.4c0.4,0.5,1.8,0.4,2.8,0.4c2.5,0.1,5,0.1,7.5,0.1c-0.2,0.5-0.5,0.9-1.1,0.8c-2.9-0.6-5.9-0.1-8.9-0.4
	c-2.2-0.2-3.6,1.1-3.9,3.7c-0.2,1.6,1.4,3.1,3.4,3.2c1.7,0.1,3.4,0,5.1,0.1C166.3,198.4,166.6,198.7,167,198.9z"/>
<path class="st14" d="M192.3,183.2c-0.6-1.4-0.7-2.9-0.9-4.3c2,0.7,3.1,2,2.8,4.1c-0.3,2.2,1.4,2.7,2.7,3.4c1,0.5,1.1-0.5,1.2-1.2
	c0.5-2.4,1.5-4.6,2.6-6.8c-1,5.8-2,11.6-3.6,17.3c-0.6-0.6-0.7-1.3-0.9-2.1C195.2,190,194.7,186.3,192.3,183.2z"/>
<path class="st14" d="M171.3,191c0-3.1,0-6.2-2.8-8.5c-0.2-1.7-1.6-2.5-2.6-3.6c5.1-0.4,6.4,4,8.5,7C176,188.2,173.9,191,171.3,191z
	"/>
<path class="st14" d="M180.5,180.4c0.9,5.3,1.8,10.7,2.6,16c-0.3,0-0.6-0.1-1-0.1c0.9-3-3.8-3.5-2.8-6.9c0.5-1.7-0.5-3.9-0.6-6
	C178.7,181.7,179.2,181,180.5,180.4z"/>
<path class="st14" d="M222.8,180.9c-1.2,2.2-1.1,4.7-1.1,7.1c-0.1,3.9-0.1,7.9-0.2,11.8c-1.4-2.6-0.7-5.4-0.5-8.1
	c0.1-1.5,0.2-3,0.2-4.5c0-0.4-0.1-0.9-0.3-1.1c-1.6-1.6-1.7-2.2,0-3.8C221.5,181.8,221.9,180.9,222.8,180.9z"/>
<path class="st13" d="M323.7,178.3c-5.3,0-10.6,0-15.9,0c4.4-0.8,8.8-0.2,13.1-0.4C321.8,177.9,322.8,177.7,323.7,178.3z"/>
<path class="st14" d="M155.3,178.3c-4.5,0-9,0.1-13.5,0.1c1.6-1,3.5-0.5,5.2-0.4C149.8,178,152.6,177.5,155.3,178.3z"/>
<path class="st14" d="M135.9,182.3c-0.5-0.1-0.9-0.1-1.4-0.2c-0.1-1.2-0.1-2.5-0.2-3.7C136.7,179,135.8,180.9,135.9,182.3z"/>
<path class="st14" d="M136.6,188.6c-0.1-1.6-0.1-3.2-0.2-4.8c1,0.5,2,0.9,0.8,2.2C136.6,186.7,138.6,188.1,136.6,188.6z"/>
<path class="st14" d="M255.7,185.9c0.1,0.4,0.1,0.8,0.2,1.2c-0.3-0.2-0.9-0.5-0.9-0.7c-0.1-2.7-0.8-5.3,0.3-7.9
	C255.5,180.9,254.8,183.4,255.7,185.9z"/>
<path class="st14" d="M296.5,178.4c-3.1,0-6.1,0.1-9.2,0.1C290.4,177.6,293.4,177.7,296.5,178.4z"/>
<path class="st14" d="M81.1,178.1c-1.3,0.3-2.6,0.2-3.9,0.1C78.5,177,79.8,177.1,81.1,178.1z"/>
<path class="st14" d="M163.1,178.4c-1.4,0-2.9,0-4.3-0.1C160.2,177.7,161.7,177.7,163.1,178.4z"/>
<path class="st13" d="M330.9,178.4c-1,0-1.9,0-2.9,0C329,177.7,330,177.7,330.9,178.4z"/>
<path class="st14" d="M226.3,178.5c-0.7,0.3-1.4,0.6-2,1C224.5,178.1,225.5,178.5,226.3,178.5z"/>
<path class="st14" d="M183.1,196.6c0.6,0.6,0.5,1.5,0.5,2.2C182.8,198.2,183.1,197.4,183.1,196.6z"/>
<path class="st14" d="M26.4,180.1c0.5,0.7,0.4,1.4,0.4,2.2C26.1,181.7,26.4,180.9,26.4,180.1z"/>
<path class="st14" d="M26.9,183c0.6,0.6,0.4,1.4,0.5,2.2C26.6,184.6,26.9,183.8,26.9,183z"/>
<path class="st14" d="M76.3,178.3c-0.6,0-1.3,0.1-1.9,0.1C75,177.8,75.6,177.8,76.3,178.3z"/>
<path class="st14" d="M166,179c-0.6,0-1.1-0.1-1.6-0.5C165,178.4,165.6,178.4,166,179z"/>
<path class="st14" d="M87.5,178.2c-0.2,0-0.3,0-0.5,0c0.1-0.1,0.1-0.3,0.2-0.4C87.2,178,87.4,178.1,87.5,178.2z"/>
<path class="st14" d="M255.9,187.1c0.4,0.2,0.5,0.6,0.5,1C255.9,187.9,255.8,187.5,255.9,187.1z"/>
<path class="st14" d="M180.2,178.5c0,0.3,0,0.6-0.1,0.9C179.7,179,179.7,178.7,180.2,178.5z"/>
<path class="st14" d="M136.4,183.1c-0.2-0.3-0.3-0.5-0.5-0.8C136.1,182.6,136.2,182.8,136.4,183.1z"/>
<path class="st14" d="M223.3,180.4c-0.2,0.2-0.3,0.3-0.5,0.5C223,180.7,223.1,180.5,223.3,180.4z"/>
<path class="st14" d="M256.3,188.1c0.1,0.2,0.3,0.4,0.4,0.5C256.6,188.4,256.5,188.2,256.3,188.1z"/>
<path class="st14" d="M224.3,179.4c-0.2,0.2-0.3,0.3-0.5,0.5C223.9,179.7,224.1,179.6,224.3,179.4z"/>
<path class="st4" d="M147.1,319.5c0.3,0.1,0.6,0.1,0.8,0.2c0.4,2.4,2.1,3,4.6,3c-3,1.6-2.6,4-1.6,6.6c-2.5-1.7-4.9-2.3-7-0.1
	c-0.8-0.3-0.7-0.7-0.6-1.1c0.7-2,1.3-3.8-1.5-4.6c-0.1,0-0.3-0.4-0.2-0.6c0.2-0.5,0.6-0.4,1-0.4c1.9,0.1,3.2-0.5,3.9-2.4
	c0,0,0,0,0,0C146.8,319.8,146.9,319.7,147.1,319.5z"/>
<path class="st4" d="M218.1,319.6c1.3,1.6,2.6,3.3,5.2,2.7c0.4-0.1,0,0.6-0.1,1c-2.2,0.9-2.6,2.3-1,4.2c0,0,0,0,0,0
	c0.1,0.6,0.3,1.1,0.4,1.7c0,0,0,0,0,0c-0.8,0-1.3-0.5-2-0.8c-1.3-0.7-2.6-1-3.6,0.4c-0.5,0.6-0.9,0.5-1.5,0.4
	c-0.4-0.1-0.4-0.5-0.2-0.8c1.5-2.6-0.2-4.1-2.4-5.5c1.8-0.9,4.1,0.2,4.6-2.3c0,0,0,0,0,0C217.7,320.2,217.9,319.9,218.1,319.6z"/>
<path class="st4" d="M182.2,319.6c0.4-0.3,0.8-0.3,1.2,0c0.5,1.7,1.2,3,3.3,2.8c1.7-0.2,0.7,0.8,0.6,1.4c0,0-0.1-0.1-0.1-0.1
	c-3.3,1.4,0,3.5-0.6,5.6c-2.3-1.8-4.8-2.9-7.4-0.2c0.2-2.5,1.6-5.3-2.1-6.5C179.5,322.5,181.7,322.3,182.2,319.6z"/>
<path class="st4" d="M165,320.1c0.3-0.2,0.6-0.3,0.9-0.5c0.3,2.6,2,3.1,4.7,2.9c-3.5,1.6-2.9,4-1.6,6.4c-1.3,0.3-1.9-0.5-2.6-0.8
	c-1-0.4-1.8-0.5-2.7,0.1c-0.5,0.3-1,1-1.7,0.4c-0.5-0.4,0-1.1,0.2-1.6c0.6-1.5,0.3-2.6-1.3-3.3c-0.4-0.2-0.9-0.4-0.9-1.1
	c1.6-0.5,3.5-0.6,4.7-2.1c0,0,0,0,0,0C164.7,320.4,164.9,320.2,165,320.1z"/>
<path class="st4" d="M198.9,321c0.1-0.1,0.2-0.2,0.2-0.4c0.2-0.2,0.3-0.4,0.5-0.6c0,0,0,0,0,0c0.2-0.2,0.5-0.3,0.7-0.5
	c0.2,0.2,0.4,0.4,0.6,0.6c0.1,2.9,2.4,1.9,4,2.3l0,0c0,0.1,0.1,0.2,0,0.2c-2.3,1.7-2.7,3.8-0.9,6.4c-2.6-1.5-4.9-2.4-7.4,0.1
	c1.1-3,1.3-5.3-2.4-6.4C196,322.2,198,322.9,198.9,321z"/>
<path class="st4" d="M182.6,338.2c1,2.6,2.3,3.8,5.2,3.1c-1.3,1.7-3.1,2.7-2,4.9c0.4,0.7-0.7,0.6-1.2,0.4c-1.3-0.6-2.5-0.6-3.7,0
	c-0.5,0.2-1.5,0.4-1.2-0.4c0.8-2.4-0.3-3.5-2.5-4.6C179.9,341.8,182,341.3,182.6,338.2z"/>
<path class="st2" d="M170.3,341.3c-2.1,1.7-4,2.8-2.1,5.4c-2.2-0.8-4.1-1-6.6,0.6c1.8-3.2,0-4.3-2.3-5.5c2.2-0.6,4.6,0.1,5.1-2.5
	c0.1-0.4,0.9-0.5,1,0C165.8,341.9,167.8,341.5,170.3,341.3z"/>
<path class="st2" d="M194.7,341.7c2.4,0.1,4-0.7,5-3.4c0.8,2.9,2.4,3.7,4.9,2.9c-1.5,1.6-3.3,2.9-1.3,5.6c-2.4-0.8-4.2-1.2-6.7,0.5
	C198.6,344,196.5,343.1,194.7,341.7z"/>
<path class="st4" d="M220.8,344.8c-0.1,1,0,2.2-1.6,1.4c-1.1-0.6-2-0.1-3.2,0.3c0.4-2.2-0.7-3.6-2.7-4.9c1.4-0.3,2.4-0.4,3.3-0.6
	c0,0,0-0.1,0-0.1c0.3-0.1,0.4-0.3,0.4-0.6c0-0.8,0.2-1.4,1-1.6c0.9,2.1,2.9,2.6,4.7,3.4c0,0,0.1,0,0.1,0c-0.2,0.2-0.3,0.4-0.5,0.5
	c0,0,0-0.1,0-0.1C221.4,343.2,220.2,343.4,220.8,344.8L220.8,344.8z"/>
<path class="st2" d="M146.7,338.6c0.8,2,1.9,3.2,4.2,2.7c-0.4,1.8-3.1,2.5-1.8,4.7c-0.3,0.1-0.5,0.1-0.6,0.1
	c-2.1-0.5-3.9-1.7-6.8-4.7C144.1,341.6,146.1,341.3,146.7,338.6z"/>
<path class="st14" d="M217.9,338.8c-0.8,0.3-1.1,0.9-1,1.6c-0.1,0.2-0.2,0.4-0.4,0.6c0,0,0,0.1,0,0.1c-1.2-0.6-1.8-3-1-3.9
	c0.4-0.4,0.9-0.8,1.5-0.5C218.1,337.1,217.9,338,217.9,338.8z"/>
<polygon class="st4" points="204.9,322.5 204.9,322.4 204.8,322.5 "/>
<path class="st13" d="M187.3,323.9c0.1-0.6,1.1-1.6-0.6-1.4c-2.1,0.2-2.8-1.1-3.3-2.8c2-0.5,4.4,0.6,5.1,2.4
	C189,323.2,188.1,323.5,187.3,323.9z"/>
<path class="st13" d="M222.2,327.4c-1.6-1.8-1.2-3.2,1-4.2C223.6,324.8,222.7,326.1,222.2,327.4z"/>
<path class="st13" d="M222.6,329.2c-0.1-0.6-0.3-1.1-0.4-1.7c0.8,0,1.9-0.5,2,0.9C224.2,329.4,223.3,329.2,222.6,329.2z"/>
<path class="st13" d="M220.8,344.8c-0.6-1.5,0.6-1.6,1.4-2.1C222.4,343.9,221.1,344,220.8,344.8z"/>
<path class="st13" d="M218.1,319.6c-0.2,0.3-0.4,0.6-0.6,0.9C217.5,320.1,217.6,319.8,218.1,319.6z"/>
<path class="st13" d="M147.1,319.5c-0.2,0.2-0.3,0.4-0.5,0.5C146.7,319.8,146.6,319.3,147.1,319.5z"/>
<path class="st13" d="M200.2,319.6c-0.2,0.2-0.5,0.3-0.7,0.5C199.8,319.9,200,319.8,200.2,319.6z"/>
<path class="st13" d="M165,320.1c-0.1,0.2-0.3,0.3-0.4,0.5C164.7,320.4,164.9,320.2,165,320.1z"/>
<path class="st13" d="M199.5,320.1c-0.2,0.2-0.3,0.4-0.5,0.6C199.2,320.5,199.4,320.3,199.5,320.1z"/>
<path class="st13" d="M222.2,342.8c0.2-0.2,0.3-0.4,0.5-0.5C222.6,342.5,222.4,342.6,222.2,342.8z"/>
<path class="st9" d="M128.5,315.9c0,3.4,0,6.8,0,10.2C128.1,322.7,128.1,319.3,128.5,315.9z"/>
<path class="st9" d="M128.5,327.5c0.2,3.1,0.2,6.2,0,9.3C128.1,333.7,128.1,330.6,128.5,327.5z"/>
<path class="st9" d="M128.5,339.2c0.2,2.3,0.2,4.6,0,6.8C128.2,343.7,128.1,341.5,128.5,339.2z"/>
<path class="st9" d="M128.5,309c0.2,1.8,0.2,3.7,0,5.5C128.1,312.7,128.1,310.8,128.5,309z"/>
<path class="st14" d="M239.5,188.9c-0.1,10-0.1,19.9-0.2,29.9c0,2.3-0.8,2.6-4.4,2.3c-0.1-9.2-0.1-18.4-0.2-27.6
	C234.7,188.8,234.6,188.8,239.5,188.9z"/>
<path class="st13" d="M153.9,221.1c0-3.4,0-3.4,3.4-3.4c1.3,0,2.5,0.1,3.8,0.1c0,2.4-1.2,3.5-3.6,3.4
	C156.3,221.1,155.1,221.1,153.9,221.1z"/>
<path class="st13" d="M216.6,341c0.1-0.2,0.2-0.4,0.4-0.6C217,340.7,216.9,340.9,216.6,341z"/>
<path class="st15" d="M349.3,168.3c-17,0.7-33.9,0.3-50.9,0.3c-92.9,0-185.8,0-278.7,0c-1.5,0-3.1-0.3-4.3,1.1
	c0.1,0.3,0.2,0.6,0.2,0.9c0.1,0.5,0.2,1.1,0.3,1.6c2.9,11.5,6.9,22.8,6.7,34.9c2,3.1,1.1,6.5,0.6,9.6c-1.4,9.1-3.3,18.1-6.1,27
	c0.8,0.1,1.6,0.1,2.4,0.1c31.3,0,62.6,0,93.9,0c2.2,0,4.4,0.1,6.5,0.1c0.9,0,1.8-0.1,2.7-0.1c31.6,0,63.2,0,94.8,0
	c42.8,0,85.6,0,128.5,0c3.4,0,3.3,0,2.5-3.3c-1.9-7.1-3.6-14.2-4.6-21.5c-0.3-2.4-1.5-4.7-0.9-7.2c-0.4-0.2-0.7-0.5-0.7-0.9
	c0.2-3.2-0.7-6.5,0.5-9.7c0.9-5.9,1.4-11.8,3-17.6c0.1-0.5,0.2-0.9,0.4-1.4c0.1-0.4,0.2-0.7,0.3-1.1c-0.1-1,0.3-1.9,0.6-2.8
	c0.1-0.4,0.2-0.7,0.3-1.1c-0.1-1,0.3-1.9,0.6-2.8c0.1-0.4,0.2-0.7,0.4-1.1c-0.1-1,0.3-1.9,0.6-2.8c0-0.5,0-0.9,0.1-1.4
	c0.1,0,0.2,0,0.3-0.1C349.4,168.9,349.3,168.6,349.3,168.3z M21.9,183.7c1.3,1.2,2.9,2.1,4.4,2.1v0C24.9,185.8,23.2,185,21.9,183.7z
	"/>
<path class="st3" d="M283.6,256.9c-0.3-0.7-1.1-0.3-1.7-0.4c-0.3,0-0.6,0-1,0c-66.6,0-133.2,0-199.8,0c-0.9,0-1.8-0.2-2.9,0.4
	c9.6,13.8,21.2,25.1,35.8,33.3c5.4,3,10.9,4.3,17.1,4.2c34-0.2,68.1-0.2,102.1,0c5.5,0,10.3-1.3,14.9-4.1c0.8-0.5,1.7-1,2.5-1.5
	c12.9-7.8,23.5-18.1,32.2-30.3C283.2,258.1,283.9,257.6,283.6,256.9z M116.1,276.1c-2.8-1.8-5.3-2-8.1,0.2c1.4-3.3,2-6.2-1.3-8.9
	c3.4,1,6.3,1.1,9.5-0.1C114.4,270.2,114.1,273,116.1,276.1z M258.4,268.3c-2.2,2.6-1.4,5.1-0.3,8c-2.6-2-5-2-7.3-0.1
	c-0.6-0.8-0.3-1.3,0-1.8c1.2-2,1.1-3.7-0.6-5.3c-0.3-0.3-0.8-0.8-0.5-1.2c0.3-0.6,1.1-0.4,1.5-0.2c2,1.1,4,0.6,6-0.1
	C257.9,267.4,259.3,267.4,258.4,268.3z"/>
<g>
	<path class="st8" d="M85.8,196.7h-4.5v-6H97v6h-4.9v29.6h-7.8L69,200v20h4.4v6H57.9v-6h4.8v-23.3h-4.8v-6h14.8l13,22.1V196.7z"/>
	<path class="st8" d="M130.2,196.7l7.4,23.3h4.2v6h-17.4v-6h4.5l-1.7-6h-9.2l-1.9,6h4.7v6h-15.6v-6h4.4l6.9-23.3h-4.7v-6h23.1v6
		H130.2z M122.8,198.1l-3.2,10.7h6.1L122.8,198.1z"/>
	<path class="st8" d="M175.5,204.9v-8.2H170V220h5.3v6h-19.8v-6h5.4v-23.3h-5.4v8.2h-6v-14.2h32v14.2H175.5z"/>
	<path class="st8" d="M207.9,196.7V220h5.4v6h-20v-6h5.3v-23.3h-5.3v-6h20v6H207.9z"/>
	<path class="st8" d="M224.8,208.2c0-3.6,0.8-6.7,2.5-9.5s3.9-4.9,6.9-6.4s6.4-2.3,10.3-2.3s7.3,0.8,10.3,2.3s5.3,3.7,6.9,6.4
		s2.4,5.9,2.4,9.4c0,3.6-0.8,6.8-2.4,9.5s-3.9,4.9-6.9,6.4s-6.4,2.3-10.2,2.3c-3.8,0-7.1-0.8-10.1-2.3s-5.3-3.6-7-6.4
		S224.8,211.8,224.8,208.2z M254.2,208.2c0-2.1-0.4-4.1-1.2-5.8s-1.9-3.2-3.4-4.2s-3.2-1.6-5.2-1.6s-3.7,0.5-5.2,1.6
		s-2.6,2.4-3.4,4.2s-1.2,3.7-1.2,5.8c0,2.2,0.4,4.3,1.2,6.1s1.9,3.2,3.4,4.2s3.2,1.5,5.1,1.5c2,0,3.7-0.5,5.2-1.5s2.6-2.4,3.4-4.2
		S254.2,210.4,254.2,208.2z"/>
	<path class="st8" d="M304.2,196.7h-4.5v-6h15.8v6h-4.9v29.6h-7.8L287.4,200v20h4.4v6h-15.5v-6h4.8v-23.3h-4.8v-6h14.8l13,22.1
		V196.7z"/>
</g>
<g>
	<path class="st11" d="M83.7,194.1h-4.5v-6h15.8v6H90v29.6h-7.8l-15.3-26.2v20h4.4v6H55.9v-6h4.8v-23.3h-4.8v-6h14.8l13,22.1V194.1z
		"/>
	<path class="st11" d="M128.1,194.1l7.4,23.3h4.2v6h-17.4v-6h4.5l-1.7-6H116l-1.9,6h4.7v6h-15.6v-6h4.4l6.9-23.3h-4.7v-6h23.1v6
		H128.1z M120.8,195.6l-3.2,10.7h6.1L120.8,195.6z"/>
	<path class="st11" d="M173.4,202.3v-8.2h-5.5v23.3h5.3v6h-19.8v-6h5.4v-23.3h-5.4v8.2h-6v-14.2h32v14.2H173.4z"/>
	<path class="st11" d="M205.8,194.1v23.3h5.4v6h-20v-6h5.3v-23.3h-5.3v-6h20v6H205.8z"/>
	<path class="st11" d="M222.8,205.7c0-3.6,0.8-6.7,2.5-9.5s3.9-4.9,6.9-6.4s6.4-2.3,10.3-2.3s7.3,0.8,10.3,2.3s5.3,3.7,6.9,6.4
		s2.4,5.9,2.4,9.4c0,3.6-0.8,6.8-2.4,9.5s-3.9,4.9-6.9,6.4s-6.4,2.3-10.2,2.3c-3.8,0-7.1-0.8-10.1-2.3s-5.3-3.6-7-6.4
		S222.8,209.3,222.8,205.7z M252.2,205.7c0-2.1-0.4-4.1-1.2-5.8s-1.9-3.2-3.4-4.2s-3.2-1.6-5.2-1.6s-3.7,0.5-5.2,1.6
		s-2.6,2.4-3.4,4.2s-1.2,3.7-1.2,5.8c0,2.2,0.4,4.3,1.2,6.1s1.9,3.2,3.4,4.2s3.2,1.5,5.1,1.5c2,0,3.7-0.5,5.2-1.5s2.6-2.4,3.4-4.2
		S252.2,207.9,252.2,205.7z"/>
	<path class="st11" d="M302.2,194.1h-4.5v-6h15.8v6h-4.9v29.6h-7.8l-15.3-26.2v20h4.4v6h-15.5v-6h4.8v-23.3h-4.8v-6h14.8l13,22.1
		V194.1z"/>
</g>
</svg>
